<svg width="20" height="21" fill="none" xmlns="http://www.w3.org/2000/svg"><path fill-rule="evenodd" clip-rule="evenodd" d="M7.767 2.989a3.443 3.443 0 014.466 0l.139.118.181.015a3.443 3.443 0 013.159 3.158l.014.181.118.139a3.443 3.443 0 010 4.466l-.118.139-.014.181a3.436 3.436 0 01-.998 2.161l1.953 1.953-3.334 3.333L10 15.5l-3.333 3.333L3.333 15.5l1.953-1.953a3.436 3.436 0 01-.998-2.16l-.014-.182-.118-.139a3.443 3.443 0 010-4.466l.118-.139.014-.181a3.443 3.443 0 013.159-3.158l.181-.015.139-.118zm5.566 5.844a3.333 3.333 0 11-6.666 0 3.333 3.333 0 016.666 0zm1.667 0a5 5 0 11-10 0 5 5 0 0110 0z" fill="#22C55E"/></svg>