<svg width="22" height="22" fill="none" xmlns="http://www.w3.org/2000/svg"><path fill-rule="evenodd" clip-rule="evenodd" d="M10.175 2.87c-4.17.395-7.425 3.745-7.425 7.819 0 4.34 3.693 7.857 8.25 7.857 4.556 0 8.25-3.518 8.25-7.857 0-1.082-.23-2.111-.643-3.047l1.52-.61a9.016 9.016 0 01.773 3.657c0 5.207-4.433 9.428-9.9 9.428-5.468 0-9.9-4.22-9.9-9.428C1.1 5.482 5.532 1.26 11 1.26h.825v4.715h-1.65V2.87z" fill="#0061BC"/><path d="M17.188 4.022a.6.6 0 01.797.019.532.532 0 01.02.759l-6.282 6.612a1.083 1.083 0 01-1.516.036.964.964 0 01.038-1.443l6.943-5.983z" fill="#FF6D3B"/></svg>