<svg width="60" height="60" fill="none" xmlns="http://www.w3.org/2000/svg"><g clip-path="url(#clip0_282_11370)"><path d="M43.477 59.883H16.523a1.172 1.172 0 01-1.171-1.172V7.09a1.172 1.172 0 012.343 0v50.45h24.61V7.09a1.172 1.172 0 012.343 0v51.62c0 .648-.524 1.173-1.171 1.173z" fill="#0061BC"/><path d="M58.71 59.883H43.478a1.172 1.172 0 01-1.172-1.172V18.867c0-.647.525-1.172 1.172-1.172H58.71c.647 0 1.172.525 1.172 1.172v39.844c0 .647-.525 1.172-1.172 1.172zm-14.062-2.344H57.54v-37.5H44.65v37.5zm-28.125 2.344H1.29A1.172 1.172 0 01.117 58.71V18.867c0-.647.525-1.172 1.172-1.172h15.234c.648 0 1.172.525 1.172 1.172v39.844c0 .647-.524 1.172-1.172 1.172zM2.461 57.539h12.89v-37.5H2.462v37.5zM42.89 8.32H17.11a4.106 4.106 0 01-4.102-4.101A4.106 4.106 0 0117.109.117h25.782a4.106 4.106 0 014.101 4.102 4.106 4.106 0 01-4.101 4.101zM17.11 2.46a1.76 1.76 0 00-1.758 1.759 1.76 1.76 0 001.757 1.758h25.782a1.76 1.76 0 001.757-1.758 1.76 1.76 0 00-1.757-1.758H17.109z" fill="#0061BC"/><path d="M30 27.07a3.52 3.52 0 01-3.516-3.515v-1.172h-1.172a3.52 3.52 0 01-3.515-3.516 3.52 3.52 0 013.515-3.515h1.172V14.18A3.52 3.52 0 0130 10.664a3.52 3.52 0 013.516 3.516v1.172h1.172a3.52 3.52 0 013.515 3.515 3.52 3.52 0 01-3.516 3.516h-1.171v1.172A3.52 3.52 0 0130 27.07zm-4.688-9.375a1.173 1.173 0 00.001 2.344h2.343c.647 0 1.172.525 1.172 1.172v2.344c0 .646.526 1.172 1.172 1.172.646 0 1.172-.526 1.172-1.172V21.21c0-.647.525-1.172 1.172-1.172h2.343a1.173 1.173 0 000-2.344h-2.343a1.172 1.172 0 01-1.172-1.172V14.18c0-.646-.526-1.172-1.172-1.172-.646 0-1.172.526-1.172 1.172v2.343c0 .648-.525 1.172-1.172 1.172h-2.343z" fill="#06A765"/><path d="M37.617 59.883H22.383a1.172 1.172 0 01-1.172-1.172V42.305a3.52 3.52 0 013.516-3.516h10.546a3.52 3.52 0 013.516 3.516V58.71c0 .647-.525 1.172-1.172 1.172zm-14.062-2.344h12.89V42.305c0-.647-.525-1.172-1.172-1.172H24.727c-.647 0-1.172.525-1.172 1.172v15.234zm11.718-21.094H24.727a3.52 3.52 0 01-3.516-3.515 3.52 3.52 0 013.516-3.516h10.546a3.52 3.52 0 013.516 3.516 3.52 3.52 0 01-3.516 3.515zm-10.546-4.687a1.172 1.172 0 000 2.344h10.546a1.173 1.173 0 000-2.344H24.727z" fill="#0061BC"/><path d="M11.836 31.758h-5.86a1.172 1.172 0 01-1.171-1.172v-7.031c0-.647.524-1.172 1.172-1.172h5.859c.647 0 1.172.525 1.172 1.172v7.03c0 .648-.525 1.173-1.172 1.173zm-4.688-2.344h3.516v-4.687H7.148v4.687zm4.688 14.063h-5.86a1.172 1.172 0 01-1.171-1.172v-7.032a1.17 1.17 0 011.172-1.171h5.859c.647 0 1.172.524 1.172 1.171v7.032c0 .647-.525 1.172-1.172 1.172zm-4.688-2.344h3.516v-4.688H7.148v4.688zm4.688 14.062h-5.86a1.172 1.172 0 01-1.171-1.172v-7.03c0-.648.524-1.173 1.172-1.173h5.859c.647 0 1.172.525 1.172 1.172v7.031c0 .647-.525 1.172-1.172 1.172zm-4.688-2.343h3.516v-4.688H7.148v4.688zm46.875-21.094h-5.859a1.172 1.172 0 01-1.172-1.172v-7.031c0-.647.525-1.172 1.172-1.172h5.86c.646 0 1.171.525 1.171 1.172v7.03c0 .648-.525 1.173-1.172 1.173zm-4.687-2.344h3.516v-4.687h-3.516v4.687zm4.687 14.063h-5.859a1.172 1.172 0 01-1.172-1.172v-7.032c0-.647.525-1.171 1.172-1.171h5.86c.646 0 1.171.524 1.171 1.171v7.032c0 .647-.525 1.172-1.172 1.172zm-4.687-2.344h3.516v-4.688h-3.516v4.688zm4.687 14.062h-5.859a1.172 1.172 0 01-1.172-1.172v-7.03c0-.648.525-1.173 1.172-1.173h5.86c.646 0 1.171.525 1.171 1.172v7.031c0 .647-.525 1.172-1.172 1.172zm-4.687-2.343h3.516v-4.688h-3.516v4.688z" fill="#06A765"/></g><defs><clipPath id="clip0_282_11370"><path fill="#fff" d="M0 0h60v60H0z"/></clipPath></defs></svg>