<svg width="20" height="21" fill="none" xmlns="http://www.w3.org/2000/svg"><path fill-rule="evenodd" clip-rule="evenodd" d="M10.833 10.416A4.168 4.168 0 0010 2.166a4.167 4.167 0 00-.833 8.25v1.782c-1.163.09-2.23.366-3.075.789-.994.496-1.925 1.337-1.925 2.513s.931 2.016 1.925 2.513c1.043.522 2.426.82 3.908.82 1.482 0 2.865-.298 3.908-.82.994-.497 1.925-1.337 1.925-2.513s-.931-2.017-1.925-2.513c-.845-.423-1.912-.699-3.075-.789v-1.782zm0-4.083a.833.833 0 11-1.666 0 .833.833 0 011.666 0zM9.167 15.5v-1.63c-.93.086-1.735.31-2.33.607-.816.409-1.004.818-1.004 1.023 0 .204.188.614 1.004 1.022.767.383 1.884.645 3.163.645 1.28 0 2.396-.262 3.163-.645.816-.408 1.004-.817 1.004-1.022 0-.205-.188-.614-1.004-1.023-.595-.297-1.4-.52-2.33-.606V15.5H9.167z" fill="#0061BC"/></svg>