<svg width="91" height="25" fill="none" xmlns="http://www.w3.org/2000/svg"><path fill-rule="evenodd" clip-rule="evenodd" d="M3.831 16.808a19.39 19.39 0 011.572 2.322c.4.76.566 1.274.863 2.187.174.504.34.657.688.657.38 0 .554-.257.688-.657.278-.863.492-1.52.832-2.147.668-1.201 1.51-2.27 2.332-3.298.226-.288 1.665-1.983 2.312-3.33 0 0 .792-1.469.792-3.523 0-1.922-.78-3.256-.78-3.256l-2.26.606-1.377 3.617-.34.492-.071.093-.093.114-.154.185-.226.226-1.223.996-3.05 1.768-.505 2.948z" fill="#34A853"/><path fill-rule="evenodd" clip-rule="evenodd" d="M.678 12.296c.75 1.706 2.178 3.196 3.153 4.511L9 10.684s-.73.956-2.045.956a2.646 2.646 0 01-2.661-2.652c0-1.017.606-1.715.606-1.715l-3.503.935-.718 4.088z" fill="#0061BC"/><path fill-rule="evenodd" clip-rule="evenodd" d="M9.06 2.342c1.716.555 3.185 1.715 4.07 3.432l-4.131 4.92s.606-.709.606-1.715c0-1.51-1.274-2.65-2.651-2.65-1.305 0-2.055.943-2.055.943V4.171l4.162-1.829z" fill="#4285F4"/><path fill-rule="evenodd" clip-rule="evenodd" d="M1.622 4.51c1.028-1.222 2.825-2.485 5.31-2.485a7.1 7.1 0 012.117.319L4.9 7.276H1.96L1.622 4.51z" fill="#1A73E8"/><path fill-rule="evenodd" clip-rule="evenodd" d="M.678 12.297S0 10.95 0 9.01c0-1.84.718-3.441 1.634-4.49L4.91 7.283.678 12.297z" fill="#EA4335"/><path d="M29.31 20.22c-1.28 0-2.394-.267-3.34-.8-.947-.533-1.68-1.327-2.2-2.38-.507-1.067-.76-2.38-.76-3.94v-.4c0-1.107.146-2.087.44-2.94.306-.853.733-1.573 1.28-2.16a5.447 5.447 0 012-1.36c.773-.307 1.633-.46 2.58-.46.72 0 1.386.1 2 .3.626.187 1.18.467 1.66.84.48.36.88.82 1.2 1.38.333.547.58 1.18.74 1.9h-2.6c-.187-.587-.44-1.047-.76-1.38a2.677 2.677 0 00-1.06-.7 3.302 3.302 0 00-1.18-.22c-.747 0-1.407.173-1.98.52-.574.347-1.02.873-1.34 1.58-.307.707-.46 1.607-.46 2.7v.4c0 .853.093 1.593.28 2.22.186.627.446 1.147.78 1.56.346.413.746.72 1.2.92.466.2.973.3 1.52.3.693 0 1.293-.12 1.8-.36.506-.24.913-.613 1.22-1.12.306-.507.493-1.147.56-1.92h-3.18v-2h5.5v.8c0 1.12-.14 2.1-.42 2.94-.267.84-.654 1.54-1.16 2.1-.507.56-1.127.98-1.86 1.26-.72.28-1.54.42-2.46.42zm12.897 0c-.974 0-1.854-.2-2.64-.6a4.654 4.654 0 01-1.88-1.82c-.454-.813-.68-1.813-.68-3v-.4c0-1.12.226-2.067.68-2.84a4.555 4.555 0 011.88-1.78c.786-.4 1.666-.6 2.64-.6.986 0 1.866.2 2.64.6.786.4 1.406.993 1.86 1.78.466.773.7 1.72.7 2.84v.4c0 1.187-.234 2.187-.7 3a4.525 4.525 0 01-1.86 1.82c-.774.4-1.654.6-2.64.6zm0-1.92c.506 0 .986-.12 1.44-.36.453-.24.82-.613 1.1-1.12.28-.52.42-1.193.42-2.02v-.4c0-.76-.14-1.38-.42-1.86-.28-.493-.647-.853-1.1-1.08a3.034 3.034 0 00-1.44-.36c-.507 0-.987.12-1.44.36-.454.227-.82.587-1.1 1.08-.28.48-.42 1.1-.42 1.86v.4c0 .827.14 1.5.42 2.02.28.507.646.88 1.1 1.12.453.24.933.36 1.44.36zm11.992 1.92c-.974 0-1.853-.2-2.64-.6a4.654 4.654 0 01-1.88-1.82c-.454-.813-.68-1.813-.68-3v-.4c0-1.12.226-2.067.68-2.84a4.555 4.555 0 011.88-1.78c.787-.4 1.666-.6 2.64-.6.986 0 1.867.2 2.64.6.787.4 1.407.993 1.86 1.78.467.773.7 1.72.7 2.84v.4c0 1.187-.233 2.187-.7 3a4.525 4.525 0 01-1.86 1.82c-.773.4-1.654.6-2.64.6zm0-1.92c.507 0 .986-.12 1.44-.36.453-.24.82-.613 1.1-1.12.28-.52.42-1.193.42-2.02v-.4c0-.76-.14-1.38-.42-1.86-.28-.493-.647-.853-1.1-1.08a3.034 3.034 0 00-1.44-.36c-.507 0-.987.12-1.44.36-.453.227-.82.587-1.1 1.08-.28.48-.42 1.1-.42 1.86v.4c0 .827.14 1.5.42 2.02.28.507.647.88 1.1 1.12.453.24.933.36 1.44.36zm11.792 5.92c-1.093 0-1.967-.133-2.62-.4-.64-.267-1.113-.64-1.42-1.12-.293-.467-.48-1-.56-1.6h2.24c.107.32.32.613.64.88.333.267.907.4 1.72.4 1 0 1.733-.24 2.2-.72.467-.48.7-1.167.7-2.06v-1.5a4.078 4.078 0 01-1.36 1.38c-.573.36-1.26.54-2.06.54-.893 0-1.68-.2-2.36-.6-.667-.4-1.187-.993-1.56-1.78s-.56-1.767-.56-2.94v-.4c0-1.093.187-2.02.56-2.78.373-.76.893-1.34 1.56-1.74.68-.4 1.46-.6 2.34-.6.88 0 1.633.2 2.26.6.64.4 1.087.867 1.34 1.4V9.4h2.04v10.1c0 1.493-.427 2.653-1.28 3.48s-2.127 1.24-3.82 1.24zm-.02-6.12c.52 0 1-.107 1.44-.32.44-.227.793-.553 1.06-.98.28-.44.42-.98.42-1.62v-1.4c0-.573-.14-1.053-.42-1.44a2.599 2.599 0 00-1.08-.92 3.213 3.213 0 00-1.42-.32c-.84 0-1.507.267-2 .8-.493.52-.74 1.32-.74 2.4v.4c0 1.133.253 1.987.76 2.56.507.56 1.167.84 1.98.84zm11.325 2c-.76 0-1.387-.107-1.88-.32a2.224 2.224 0 01-1.08-1.1c-.227-.52-.34-1.207-.34-2.06V6h2.2v10.46c0 .653.106 1.107.32 1.36.213.24.606.36 1.18.36h.38l.32-.04v1.9a3.381 3.381 0 01-.32.04c-.134.013-.274.02-.42.02h-.36zm7.508.12a5.768 5.768 0 01-2.58-.58c-.786-.4-1.42-1-1.9-1.8s-.72-1.813-.72-3.04v-.4c0-1.173.227-2.147.68-2.92.467-.773 1.08-1.347 1.84-1.72a5.39 5.39 0 012.48-.58c1.614 0 2.847.433 3.7 1.3.867.867 1.3 2.107 1.3 3.72v1.12h-7.76c.027.72.18 1.3.46 1.74.28.44.64.76 1.08.96.44.187.914.28 1.42.28.76 0 1.314-.12 1.66-.36.36-.24.607-.553.74-.94h2.2c-.213 1.053-.74 1.853-1.58 2.4-.826.547-1.833.82-3.02.82zm-.1-9.12a3.64 3.64 0 00-1.38.26 2.33 2.33 0 00-1.04.82c-.266.373-.413.873-.44 1.5h5.56c-.013-.667-.14-1.187-.38-1.56a1.894 1.894 0 00-.96-.78c-.4-.16-.853-.24-1.36-.24z" fill="#222"/></svg>