<svg width="60" height="60" fill="none" xmlns="http://www.w3.org/2000/svg"><g clip-path="url(#clip0_282_11345)"><path d="M25.313 49.292H14.765a3.515 3.515 0 110-7.03h10.629a1.172 1.172 0 010 2.343h-10.63a1.172 1.172 0 000 2.344h10.548a1.172 1.172 0 010 2.343zm12.893-1.13a1.172 1.172 0 011.086-1.252c7.753-.547 14.145-6.993 14.145-15.196 0-8.4-6.834-15.234-15.234-15.234h-1.799a1.172 1.172 0 010-2.344h1.8c9.692 0 17.577 7.886 17.577 17.578 0 9.348-7.256 16.894-16.323 17.535a1.172 1.172 0 01-1.252-1.087z" fill="#06A765"/><path d="M38.177 43.49a1.172 1.172 0 011.054-1.279c5.258-.506 9.519-4.933 9.519-10.497 0-5.815-4.731-10.546-10.547-10.546h-1.799a1.172 1.172 0 010-2.344h1.8c7.107 0 12.89 5.782 12.89 12.89 0 6.822-5.23 12.212-11.638 12.83a1.172 1.172 0 01-1.28-1.053z" fill="#06A765"/><path d="M40.914 60.204H8.102A4.106 4.106 0 014 56.102a4.106 4.106 0 014.102-4.101h32.812a4.106 4.106 0 014.102 4.101 4.106 4.106 0 01-4.102 4.102zm-32.812-5.86a1.76 1.76 0 00-1.758 1.758c0 .97.788 1.758 1.758 1.758h32.812a1.76 1.76 0 001.758-1.758 1.76 1.76 0 00-1.758-1.758H8.102z" fill="#0061BC"/><path d="M39.375 53.98H25.312a1.172 1.172 0 01-1.171-1.172V44.5c0-4.466 3.632-8.098 8.097-8.098h.211c4.465 0 8.098 3.632 8.098 8.098v8.308c0 .647-.525 1.172-1.172 1.172zm-12.89-2.344h11.718V44.5a5.76 5.76 0 00-5.754-5.754h-.21a5.76 5.76 0 00-5.755 5.754v7.136zm-3.2-23.111c-.027-.012.527.269-6.995-3.557a3.748 3.748 0 01-1.643-5.042L21.873 5.72a3.754 3.754 0 015.042-1.642l6.894 3.506a3.747 3.747 0 011.641 5.043l-.565 1.112a1.172 1.172 0 01-2.09-1.062l.566-1.113a1.405 1.405 0 00-.615-1.891l-6.894-3.507a1.408 1.408 0 00-1.89.616l-7.226 14.206a1.406 1.406 0 00.616 1.891l6.945 3.532a1.4 1.4 0 001.84-.641l2.453-4.824a1.172 1.172 0 112.089 1.062l-2.453 4.825a3.734 3.734 0 01-4.941 1.692z" fill="#0061BC"/><path d="M31.91 9.248l-5.222-2.656a1.172 1.172 0 01-.513-1.576l1.328-2.611A4.1 4.1 0 0133.02.608a4.1 4.1 0 011.796 5.516l-1.328 2.61a1.172 1.172 0 01-1.576.514zm-3.115-4.214l3.134 1.594.797-1.567a1.76 1.76 0 00-.77-2.364 1.76 1.76 0 00-2.364.77l-.797 1.567zm-9.269 26.839l-3.83-1.948a3.124 3.124 0 01-1.368-4.202l1.24-2.437a1.171 1.171 0 011.575-.513l7.312 3.719c.576.293.806.999.513 1.575l-1.24 2.437a3.124 3.124 0 01-4.203 1.37zm-2.4-6.48l-.71 1.392a.781.781 0 00.343 1.052l3.83 1.947a.781.781 0 001.05-.342l.709-1.393-5.223-2.656z" fill="#0061BC"/><path d="M32.344 48.12a3.52 3.52 0 01-3.516-3.515 3.52 3.52 0 013.516-3.516 3.52 3.52 0 013.515 3.516 3.52 3.52 0 01-3.515 3.516zm0-4.687c-.646 0-1.172.526-1.172 1.172 0 .646.526 1.172 1.172 1.172a1.173 1.173 0 000-2.344z" fill="#06A765"/><path d="M32.344 23.511a5.866 5.866 0 01-5.86-5.86 5.866 5.866 0 015.86-5.858c3.23 0 5.86 2.628 5.86 5.859 0 3.23-2.63 5.86-5.86 5.86zm0-9.375a3.52 3.52 0 00-3.516 3.516 3.52 3.52 0 003.516 3.515 3.52 3.52 0 003.515-3.515 3.52 3.52 0 00-3.515-3.516z" fill="#0061BC"/></g><defs><clipPath id="clip0_282_11345"><path fill="#fff" d="M0 0h60v60H0z"/></clipPath></defs></svg>