<svg width="60" height="60" fill="none" xmlns="http://www.w3.org/2000/svg"><path d="M13.008 39.375a4.693 4.693 0 01-4.688-4.688V24.142a1.172 1.172 0 012.344 0v10.547a2.346 2.346 0 002.344 2.343 2.346 2.346 0 002.344-2.343V24.14a1.172 1.172 0 012.343 0v10.547a4.693 4.693 0 01-4.687 4.687zm16.992 0a4.693 4.693 0 01-4.688-4.688V24.142a1.172 1.172 0 012.344 0v10.547A2.346 2.346 0 0030 37.03a2.346 2.346 0 002.344-2.343V24.14a1.172 1.172 0 012.343 0v10.547A4.693 4.693 0 0130 39.374zm16.992 0a4.693 4.693 0 01-4.687-4.688V24.142a1.172 1.172 0 012.343 0v10.547a2.346 2.346 0 002.344 2.343 2.346 2.346 0 002.344-2.343V24.14a1.172 1.172 0 012.344 0v10.547a4.693 4.693 0 01-4.688 4.687zM16.523 19.453a1.172 1.172 0 01-1.171-1.172v-4.687h-4.688v4.687a1.172 1.172 0 01-2.344 0v-5.86c0-.646.525-1.171 1.172-1.171h7.031c.648 0 1.172.525 1.172 1.172v5.86c0 .646-.524 1.171-1.172 1.171z" fill="#0061BC"/><path d="M16.523 13.594h-7.03a3.52 3.52 0 01-3.516-3.516 3.52 3.52 0 013.515-3.515h7.031a3.52 3.52 0 013.516 3.515 3.52 3.52 0 01-3.516 3.516zm-7.03-4.688c-.647 0-1.173.526-1.173 1.172 0 .646.526 1.172 1.172 1.172h7.031a1.173 1.173 0 000-2.344h-7.03zm24.023 10.547a1.172 1.172 0 01-1.172-1.172v-4.687h-4.688v4.687a1.172 1.172 0 01-2.343 0v-5.86c0-.646.524-1.171 1.171-1.171h7.032c.647 0 1.172.525 1.172 1.172v5.86c0 .646-.525 1.171-1.172 1.171z" fill="#0061BC"/><path d="M33.516 13.594h-7.032a3.52 3.52 0 01-3.515-3.516 3.52 3.52 0 013.515-3.515h7.032a3.52 3.52 0 013.515 3.515 3.52 3.52 0 01-3.515 3.516zm-7.032-4.688c-.646 0-1.172.526-1.172 1.172 0 .646.526 1.172 1.172 1.172h7.032c.646 0 1.172-.526 1.172-1.172 0-.646-.526-1.172-1.172-1.172h-7.032zm24.024 10.547a1.172 1.172 0 01-1.172-1.172v-4.687h-4.688v4.687a1.172 1.172 0 01-2.343 0v-5.86c0-.646.525-1.171 1.172-1.171h7.03c.648 0 1.173.525 1.173 1.172v5.86c0 .646-.525 1.171-1.172 1.171z" fill="#0061BC"/><path d="M50.508 13.594h-7.031a3.52 3.52 0 01-3.516-3.516 3.52 3.52 0 013.516-3.515h7.03a3.52 3.52 0 013.516 3.515 3.52 3.52 0 01-3.515 3.516zm-7.031-4.688a1.173 1.173 0 000 2.344h7.03c.647 0 1.173-.526 1.173-1.172 0-.646-.526-1.172-1.172-1.172h-7.031z" fill="#0061BC"/><path d="M55.781 53.438H4.22a4.106 4.106 0 01-4.102-4.102 4.106 4.106 0 014.102-4.102h51.56a4.106 4.106 0 014.102 4.102 4.106 4.106 0 01-4.102 4.102zM4.22 47.578a1.76 1.76 0 00-1.758 1.758c0 .97.788 1.758 1.758 1.758h51.56a1.76 1.76 0 001.758-1.758 1.76 1.76 0 00-1.758-1.758H4.22zm51.561-22.265H4.22A4.106 4.106 0 01.117 21.21a4.106 4.106 0 014.102-4.102H55.78a4.106 4.106 0 014.102 4.102 4.106 4.106 0 01-4.102 4.102zM4.22 19.453a1.76 1.76 0 00-1.758 1.758c0 .97.788 1.758 1.758 1.758h51.56a1.76 1.76 0 001.758-1.758 1.76 1.76 0 00-1.758-1.758H4.22z" fill="#06A765"/><path d="M55.195 47.578a1.172 1.172 0 01-1.172-1.172V24.141a1.172 1.172 0 012.344 0v22.265c0 .647-.525 1.172-1.172 1.172zm-50.39 0a1.172 1.172 0 01-1.172-1.172V24.141a1.172 1.172 0 012.344 0v22.265c0 .647-.525 1.172-1.172 1.172z" fill="#06A765"/></svg>