<svg width="145" height="20" fill="none" xmlns="http://www.w3.org/2000/svg"><g clip-path="url(#clip0_290_11327)"><g clip-path="url(#clip1_290_11327)"><mask id="a" style="mask-type:luminance" maskUnits="userSpaceOnUse" x="0" y="3" width="145" height="14"><path d="M144.577 3.828H.202V16.6h144.375V3.828z" fill="#fff"/></mask><g mask="url(#a)"><path fill-rule="evenodd" clip-rule="evenodd" d="M28.696 4.194c-1.828.609-2.356 1.276-2.424 3.593-.034 1.266-.112 5.026.097 6.081.625 3.014 6.166 3.117 8.949 2.283 1.789-.54 2.138-1.306 2.172-3.54.033-1.648 0-3.126.033-4.368 0-2.454-.547-3.96-3.19-4.26-1.662-.201-4.164-.275-5.642.211h.005zm6.651 8.933V7.591c.044-1.556-2.245-1.355-3.394-1.355-1.26 0-3.461-.132-3.461 1.355v5.536c0 .776.97 1.066 2.07 1.144a23.5 23.5 0 003.025-.088c1.028-.079 1.697-.368 1.74-1.065l.02.01zm-20.45-9.249c2.676 0 5.685-.185 7.34.155 1.653.34 2.519 1.391 2.519 3.502 0 3.502-1.096 4.502-3.528 4.758-.07.005-.14.005-.21 0-1.439.125-3.337 0-5.74 0v3.136c0 .31-.12.608-.334.828a1.131 1.131 0 01-1.62 0 1.184 1.184 0 01-.335-.828v-2c-.044-1.472 0-3.212 0-4.668 0-1.186.044-2.456 0-3.642a1.075 1.075 0 01.19-.781 1.036 1.036 0 01.676-.415c.344-.05.691-.065 1.037-.045h.005zm6.17 2.362h-5.783v3.74h5.088c1.468 0 2.221-.1 2.285-1.81.063-1.711-.43-1.896-1.59-1.931z" fill="#EC2327"/><path d="M11.497 15.424v-7.11c.01-2.494-.56-4.024-3.204-4.33-1.658-.195-4.171-.286-5.655.216C.821 4.812.289 5.49.222 7.847c0 .908-.044 3.075 0 4.65v2.914a1.212 1.212 0 00.334.829c.106.109.23.194.368.253a1.114 1.114 0 001.233-.254c.213-.22.334-.517.336-.828V7.646c0-1.51 2.209-1.374 3.475-1.374 1.126 0 3.354-.2 3.31 1.374v7.785a1.214 1.214 0 00.335.829c.106.108.23.194.368.253a1.106 1.106 0 001.23-.255c.21-.22.286-.524.286-.834z" fill="#EC2327"/><path fill-rule="evenodd" clip-rule="evenodd" d="M38.997 15.428c.001-.314.122-.614.337-.835.214-.221.505-.346.809-.348h.76l4.959-9.778a1.18 1.18 0 01.474-.495 1.13 1.13 0 01.662-.139c.227-.021.455.028.654.14.2.113.363.285.467.494l4.959 9.778h.487c.304.002.595.127.81.348a1.207 1.207 0 01.247 1.284 1.18 1.18 0 01-.248.381 1.139 1.139 0 01-.809.341H40.143a1.11 1.11 0 01-.808-.34 1.209 1.209 0 01-.338-.83zm8.001-8.104l-3.515 6.921h7.016l-3.501-6.92zm23.221-3.451c.165 0 .328.031.48.09.153.06.291.147.407.256a1.107 1.107 0 01.365.828v3.45l6.783-4.454c.273-.178.611-.25.94-.2.33.051.626.22.824.47.095.126.163.269.2.42a1.096 1.096 0 01-.166.887c-.089.13-.205.244-.34.332l-6.455 4.26 6.454 4.259c.274.18.46.454.517.76.058.308-.018.624-.21.88-.198.25-.492.42-.822.472a1.363 1.363 0 01-.942-.192l-6.783-4.46v3.5c0 .152-.032.304-.095.445-.063.14-.156.269-.272.377a1.263 1.263 0 01-.406.25 1.33 1.33 0 01-.48.087c-.332 0-.651-.121-.888-.338a1.134 1.134 0 01-.375-.821V5.047c.002-.31.136-.608.373-.828.236-.22.556-.344.89-.346zm18.369 2.308v9.252c-.003.31-.132.605-.36.824a1.241 1.241 0 01-1.319.255 1.213 1.213 0 01-.393-.252 1.166 1.166 0 01-.264-.38 1.133 1.133 0 01-.092-.447V6.181h-3.214c-.323 0-.633-.123-.863-.342a1.166 1.166 0 01-.362-.83 1.17 1.17 0 01.362-.832c.229-.22.538-.346.863-.349h8.856a1.257 1.257 0 01.86.348 1.171 1.171 0 01.354.834c0 .31-.128.608-.355.828-.228.22-.537.343-.859.343h-3.215zm47.144 2.776h4.624c1.633 0 2.253.055 2.253-1.34 0-1.004-.374-1.43-2.253-1.43h-4.624v2.77zm0 5.294h5.831c.843-.18 1.046-.602 1.046-1.34 0-1.395-.62-1.335-2.253-1.335h-4.624v2.685-.01zm5.94 2.348h-7.275a1.075 1.075 0 01-.783-.338 1.21 1.21 0 01-.33-.826V5.007c.002-.312.119-.61.326-.83.207-.221.488-.347.782-.35h6.224c2.022 0 3.957.829 3.957 3.323a7.255 7.255 0 01-.307 2.404 2.36 2.36 0 01-.185.386.695.695 0 00.057.713c.061.128.114.26.161.396.209.747.302 1.525.274 2.303a3.412 3.412 0 01-.861 2.215 3.045 3.045 0 01-2.045 1.017l.005.015zM58.652 4.194c-1.828.609-2.356 1.276-2.424 3.593-.034 1.266-.112 5.026.097 6.081.625 3.014 6.172 3.117 8.954 2.283 1.784-.54 2.133-1.306 2.167-3.54.034-1.648 0-3.126.034-4.368 0-2.454-.548-3.96-3.19-4.26-1.663-.201-4.164-.275-5.643.211h.005zm6.652 8.933V7.591c.043-1.556-2.245-1.355-3.394-1.355-1.26 0-3.461-.132-3.461 1.355v5.536c0 .776.97 1.066 2.07 1.144 1.009.035 2.02.006 3.024-.088 1.028-.079 1.697-.368 1.741-1.065l.02.01zm31.652-8.933c-1.822.609-2.361 1.276-2.43 3.593-.033 1.266-.106 5.026.112 6.081.612 3.014 6.179 3.117 8.957 2.283 1.788-.54 2.143-1.306 2.186-3.54V8.244c.024-2.454-.549-3.96-3.191-4.26-1.661-.201-4.163-.275-5.654.211h.02zm6.654 8.933V7.591c.044-1.556-2.254-1.355-3.4-1.355-1.258 0-3.468-.132-3.468 1.355v5.536c0 .776.971 1.066 2.088 1.144 1.007.036 2.014.006 3.017-.088 1.035-.079 1.7-.368 1.748-1.065l.015.01zm19.367-8.933c-1.833.609-2.358 1.276-2.425 3.593-.029 1.266-.107 5.026.102 6.081.625 3.014 6.168 3.117 8.952 2.283 1.79-.54 2.139-1.306 2.173-3.54.029-1.648 0-3.126.029-4.368 0-2.454-.548-3.96-3.186-4.26-1.668-.201-4.166-.275-5.645.211zm6.673 8.933V7.591c.043-1.556-2.251-1.355-3.395-1.355-1.261 0-3.468-.132-3.468 1.355v5.536c0 .776.97 1.066 2.076 1.144 1.008.036 2.017.006 3.022-.088 1.033-.079 1.702-.368 1.746-1.065l.019.01zm-20.317-9.261c2.683 0 5.524-.16 7.175.18 1.652.34 2.532 1.392 2.532 3.504 0 3.504-1.095 4.505-3.524 4.765-.07.005-.14.005-.21 0-1.466.125-3.348.025-5.733.025v3.088c0 .311-.121.609-.335.829a1.128 1.128 0 01-1.617 0 1.184 1.184 0 01-.335-.829v-2.002c-.054-1.471-.029-3.213 0-4.675 0-1.186.034-2.453 0-3.639a1.075 1.075 0 01.19-.784c.162-.225.405-.375.675-.417.34-.048.683-.063 1.026-.045h.156zm5.983 2.382h-5.747v3.745h5.072c1.467 0 2.229-.1 2.297-1.807.069-1.707-.434-1.903-1.627-1.938h.005z" fill="#0061BC"/></g></g></g><defs><clipPath id="clip0_290_11327"><path fill="#fff" transform="translate(.201)" d="M0 0h144.38v20H0z"/></clipPath><clipPath id="clip1_290_11327"><path fill="#fff" transform="translate(.202)" d="M0 0h144.378v20H0z"/></clipPath></defs></svg>