<svg width="122" height="24" fill="none" xmlns="http://www.w3.org/2000/svg"><path fill-rule="evenodd" clip-rule="evenodd" d="M20.485 12c0-5.406-4.382-9.787-9.788-9.787C5.292 2.213.91 6.595.91 12c0 5.405 4.382 9.787 9.787 9.787 5.406 0 9.788-4.382 9.788-9.787z" fill="#FC3F1D"/><path fill-rule="evenodd" clip-rule="evenodd" d="M12.003 7.759h-.897c-1.672 0-2.529.856-2.529 2.08 0 1.387.612 2.039 1.835 2.895l1.02.694-2.936 4.404H6.294l2.65-3.915c-1.509-1.101-2.365-2.162-2.365-3.915 0-2.243 1.55-3.752 4.527-3.752h2.936v11.623h-2.04V7.759z" fill="#fff"/><path fill-rule="evenodd" clip-rule="evenodd" d="M31.343 2.177a7.858 7.858 0 00-5.558 13.414c1.422 1.422 4.772 3.481 4.968 5.642.03.324.265.59.59.59.325 0 .56-.266.59-.59.196-2.161 3.546-4.22 4.968-5.642a7.858 7.858 0 00-5.558-13.413z" fill="#F43"/><path fill-rule="evenodd" clip-rule="evenodd" d="M31.444 12.794c1.5 0 2.715-1.23 2.715-2.747 0-1.518-1.215-2.748-2.715-2.748-1.5 0-2.715 1.23-2.715 2.748 0 1.517 1.215 2.747 2.715 2.747z" fill="#fff"/><path d="M50.001 20l3.52-5.64c-1.04-.307-1.82-.807-2.34-1.5-.52-.707-.78-1.54-.78-2.5 0-.853.2-1.607.6-2.26.4-.653.993-1.167 1.78-1.54s1.76-.56 2.92-.56h5.3v14h-2.4v-5.36h-2.94l-3.1 5.36h-2.56zm2.8-9.64c0 .72.24 1.28.72 1.68.493.4 1.353.6 2.58.6h2.5V8.08h-2.5c-1.227 0-2.087.2-2.58.6-.48.4-.72.96-.72 1.68zM64.195 20V9.4h2.2v4.26h5V9.4h2.2V20h-2.2v-4.46h-5V20h-2.2zm11.207 2.5v-4.38h1.2c.186-.28.346-.713.48-1.3.133-.6.233-1.287.3-2.06.08-.773.12-1.56.12-2.36v-3h7.9v8.72h1.4v4.38h-2.04V20h-7.32v2.5h-2.04zm3.44-4.38h4.36v-6.84h-3.58v1.52c0 1.027-.06 2.013-.18 2.96-.12.933-.32 1.72-.6 2.36zm14.367 2.1a5.768 5.768 0 01-2.58-.58c-.787-.4-1.42-1-1.9-1.8s-.72-1.813-.72-3.04v-.4c0-1.173.227-2.147.68-2.92.467-.773 1.08-1.347 1.84-1.72a5.39 5.39 0 012.48-.58c1.613 0 2.847.433 3.7 1.3.867.867 1.3 2.107 1.3 3.72v1.12h-7.76c.026.72.18 1.3.46 1.74.28.44.64.76 1.08.96.44.187.913.28 1.42.28.76 0 1.313-.12 1.66-.36.36-.24.606-.553.74-.94h2.2c-.213 1.053-.74 1.853-1.58 2.4-.827.547-1.834.82-3.02.82zm-.1-9.12a3.64 3.64 0 00-1.38.26 2.33 2.33 0 00-1.04.82c-.267.373-.413.873-.44 1.5h5.56c-.013-.667-.14-1.187-.38-1.56a1.894 1.894 0 00-.96-.78c-.4-.16-.853-.24-1.36-.24zm7.101 8.9V9.4h2.2v4.3h1.2l3.72-4.3h2.48l-4.5 5.06 4.7 5.54h-2.68l-3.72-4.5h-1.2V20h-2.2zm15.611.22c-.946 0-1.8-.2-2.56-.6-.76-.4-1.36-1-1.8-1.8-.426-.8-.64-1.807-.64-3.02v-.4c0-1.147.227-2.107.68-2.88.467-.773 1.08-1.353 1.84-1.74.76-.4 1.587-.6 2.48-.6.934 0 1.72.16 2.36.48.654.32 1.16.753 1.52 1.3a4.42 4.42 0 01.72 1.84h-2.24a2.506 2.506 0 00-.72-1.22c-.346-.32-.893-.48-1.64-.48-.493 0-.953.113-1.38.34-.413.227-.746.587-1 1.08-.253.48-.38 1.107-.38 1.88v.4c0 .84.127 1.52.38 2.04.254.507.587.88 1 1.12.427.227.887.34 1.38.34.627 0 1.134-.14 1.52-.42.387-.28.667-.707.84-1.28h2.24c-.133.747-.413 1.393-.84 1.94-.413.533-.94.947-1.58 1.24-.64.293-1.366.44-2.18.44z" fill="#222"/></svg>