<svg width="20" height="21" viewBox="0 0 20 21" fill="none" xmlns="http://www.w3.org/2000/svg">
<path fill-rule="evenodd" clip-rule="evenodd" d="M7.76661 2.98905C9.05356 1.89232 10.9464 1.89232 12.2334 2.98905L12.3718 3.10705L12.5532 3.12152C14.2387 3.25603 15.5771 4.59447 15.7116 6.27999L15.7261 6.46133L15.8441 6.5998C16.9408 7.88675 16.9408 9.77959 15.8441 11.0665L15.7261 11.205L15.7116 11.3864C15.6444 12.2291 15.2761 12.9851 14.714 13.5472L16.6666 15.4998L13.3333 18.8332L9.99998 15.4998L6.66665 18.8332L3.33331 15.4998L5.28593 13.5472C4.72382 12.9851 4.35558 12.2291 4.28833 11.3864L4.27386 11.205L4.15586 11.0665C3.05913 9.77959 3.05913 7.88675 4.15586 6.5998L4.27386 6.46133L4.28833 6.27999C4.42284 4.59447 5.76128 3.25603 7.4468 3.12152L7.62814 3.10705L7.76661 2.98905ZM13.3333 8.83317C13.3333 10.6741 11.8409 12.1665 9.99998 12.1665C8.15903 12.1665 6.66665 10.6741 6.66665 8.83317C6.66665 6.99222 8.15903 5.49984 9.99998 5.49984C11.8409 5.49984 13.3333 6.99222 13.3333 8.83317ZM15 8.83317C15 11.5946 12.7614 13.8332 9.99998 13.8332C7.23856 13.8332 4.99998 11.5946 4.99998 8.83317C4.99998 6.07175 7.23856 3.83317 9.99998 3.83317C12.7614 3.83317 15 6.07175 15 8.83317Z" fill="#22C55E"/>
</svg>
