<svg width="22" height="22" viewBox="0 0 22 22" fill="none" xmlns="http://www.w3.org/2000/svg">
<path fill-rule="evenodd" clip-rule="evenodd" d="M10.1746 2.87061C6.00562 3.26482 2.74961 6.61475 2.74961 10.6889C2.74961 15.0284 6.44326 18.5461 10.9996 18.5461C15.5559 18.5461 19.2496 15.0284 19.2496 10.6889C19.2496 9.60697 19.0205 8.57796 18.6065 7.64203L20.1272 7.03214C20.6249 8.15766 20.8996 9.39375 20.8996 10.6889C20.8996 15.8962 16.4673 20.1175 10.9996 20.1175C5.53199 20.1175 1.09961 15.8962 1.09961 10.6889C1.09961 5.48169 5.53199 1.26038 10.9996 1.26038H11.8246V5.97466H10.1746V2.87061Z" fill="#0061BC"/>
<path d="M17.1883 4.02184C17.4168 3.82497 17.7671 3.83331 17.9851 4.04081C18.2029 4.24829 18.2117 4.58203 18.005 4.79962L11.7226 11.4125C11.3211 11.8351 10.63 11.8516 10.2069 11.4485C9.78372 11.0456 9.80099 10.3873 10.2447 10.005L17.1883 4.02184Z" fill="#FF6D3B"/>
</svg>
