<svg width="60" height="60" viewBox="0 0 60 60" fill="none" xmlns="http://www.w3.org/2000/svg">
<g clip-path="url(#clip0_282_11370)">
<path d="M43.4766 59.8828H16.5234C15.8763 59.8828 15.3516 59.358 15.3516 58.7109V7.08984C15.3516 6.44273 15.8763 5.91797 16.5234 5.91797C17.1705 5.91797 17.6953 6.44273 17.6953 7.08984V57.5391H42.3047V7.08984C42.3047 6.44273 42.8295 5.91797 43.4766 5.91797C44.1237 5.91797 44.6484 6.44273 44.6484 7.08984V58.7109C44.6484 59.358 44.1237 59.8828 43.4766 59.8828Z" fill="#0061BC"/>
<path d="M58.7109 59.8828H43.4766C42.8295 59.8828 42.3047 59.358 42.3047 58.7109V18.8672C42.3047 18.2201 42.8295 17.6953 43.4766 17.6953H58.7109C59.358 17.6953 59.8828 18.2201 59.8828 18.8672V58.7109C59.8828 59.358 59.358 59.8828 58.7109 59.8828ZM44.6484 57.5391H57.5391V20.0391H44.6484V57.5391Z" fill="#0061BC"/>
<path d="M16.5234 59.8828H1.28906C0.641953 59.8828 0.117188 59.358 0.117188 58.7109V18.8672C0.117188 18.2201 0.641953 17.6953 1.28906 17.6953H16.5234C17.1705 17.6953 17.6953 18.2201 17.6953 18.8672V58.7109C17.6953 59.358 17.1705 59.8828 16.5234 59.8828ZM2.46094 57.5391H15.3516V20.0391H2.46094V57.5391Z" fill="#0061BC"/>
<path d="M42.8906 8.32031H17.1094C14.8478 8.32031 13.0078 6.48035 13.0078 4.21875C13.0078 1.95715 14.8478 0.117188 17.1094 0.117188H42.8906C45.1522 0.117188 46.9922 1.95715 46.9922 4.21875C46.9922 6.48035 45.1522 8.32031 42.8906 8.32031ZM17.1094 2.46094C16.1401 2.46094 15.3516 3.24949 15.3516 4.21875C15.3516 5.18801 16.1401 5.97656 17.1094 5.97656H42.8906C43.8599 5.97656 44.6484 5.18801 44.6484 4.21875C44.6484 3.24949 43.8599 2.46094 42.8906 2.46094H17.1094Z" fill="#0061BC"/>
<path d="M30 27.0703C28.0615 27.0703 26.4844 25.4932 26.4844 23.5547V22.3828H25.3125C23.374 22.3828 21.7969 20.8057 21.7969 18.8672C21.7969 16.9287 23.374 15.3516 25.3125 15.3516H26.4844V14.1797C26.4844 12.2412 28.0615 10.6641 30 10.6641C31.9385 10.6641 33.5156 12.2412 33.5156 14.1797V15.3516H34.6875C36.626 15.3516 38.2031 16.9287 38.2031 18.8672C38.2031 20.8057 36.626 22.3828 34.6875 22.3828H33.5156V23.5547C33.5156 25.4932 31.9385 27.0703 30 27.0703ZM25.3125 17.6953C24.6663 17.6953 24.1406 18.221 24.1406 18.8672C24.1406 19.5134 24.6663 20.0391 25.3125 20.0391H27.6562C28.3034 20.0391 28.8281 20.5638 28.8281 21.2109V23.5547C28.8281 24.2009 29.3538 24.7266 30 24.7266C30.6462 24.7266 31.1719 24.2009 31.1719 23.5547V21.2109C31.1719 20.5638 31.6966 20.0391 32.3438 20.0391H34.6875C35.3337 20.0391 35.8594 19.5134 35.8594 18.8672C35.8594 18.221 35.3337 17.6953 34.6875 17.6953H32.3438C31.6966 17.6953 31.1719 17.1705 31.1719 16.5234V14.1797C31.1719 13.5335 30.6462 13.0078 30 13.0078C29.3538 13.0078 28.8281 13.5335 28.8281 14.1797V16.5234C28.8281 17.1705 28.3034 17.6953 27.6562 17.6953H25.3125Z" fill="#06A765"/>
<path d="M37.6172 59.8828H22.3828C21.7357 59.8828 21.2109 59.358 21.2109 58.7109V42.3047C21.2109 40.3662 22.788 38.7891 24.7266 38.7891H35.2734C37.212 38.7891 38.7891 40.3662 38.7891 42.3047V58.7109C38.7891 59.358 38.2643 59.8828 37.6172 59.8828ZM23.5547 57.5391H36.4453V42.3047C36.4453 41.6585 35.9196 41.1328 35.2734 41.1328H24.7266C24.0804 41.1328 23.5547 41.6585 23.5547 42.3047V57.5391Z" fill="#0061BC"/>
<path d="M35.2734 36.4453H24.7266C22.788 36.4453 21.2109 34.8682 21.2109 32.9297C21.2109 30.9912 22.788 29.4141 24.7266 29.4141H35.2734C37.212 29.4141 38.7891 30.9912 38.7891 32.9297C38.7891 34.8682 37.212 36.4453 35.2734 36.4453ZM24.7266 31.7578C24.0804 31.7578 23.5547 32.2835 23.5547 32.9297C23.5547 33.5759 24.0804 34.1016 24.7266 34.1016H35.2734C35.9196 34.1016 36.4453 33.5759 36.4453 32.9297C36.4453 32.2835 35.9196 31.7578 35.2734 31.7578H24.7266Z" fill="#0061BC"/>
<path d="M11.8359 31.7578H5.97656C5.32945 31.7578 4.80469 31.233 4.80469 30.5859V23.5547C4.80469 22.9076 5.32945 22.3828 5.97656 22.3828H11.8359C12.483 22.3828 13.0078 22.9076 13.0078 23.5547V30.5859C13.0078 31.233 12.483 31.7578 11.8359 31.7578ZM7.14844 29.4141H10.6641V24.7266H7.14844V29.4141Z" fill="#06A765"/>
<path d="M11.8359 43.4766H5.97656C5.32945 43.4766 4.80469 42.9518 4.80469 42.3047V35.2734C4.80469 34.6263 5.32945 34.1016 5.97656 34.1016H11.8359C12.483 34.1016 13.0078 34.6263 13.0078 35.2734V42.3047C13.0078 42.9518 12.483 43.4766 11.8359 43.4766ZM7.14844 41.1328H10.6641V36.4453H7.14844V41.1328Z" fill="#06A765"/>
<path d="M11.8359 55.1953H5.97656C5.32945 55.1953 4.80469 54.6705 4.80469 54.0234V46.9922C4.80469 46.3451 5.32945 45.8203 5.97656 45.8203H11.8359C12.483 45.8203 13.0078 46.3451 13.0078 46.9922V54.0234C13.0078 54.6705 12.483 55.1953 11.8359 55.1953ZM7.14844 52.8516H10.6641V48.1641H7.14844V52.8516Z" fill="#06A765"/>
<path d="M54.0234 31.7578H48.1641C47.517 31.7578 46.9922 31.233 46.9922 30.5859V23.5547C46.9922 22.9076 47.517 22.3828 48.1641 22.3828H54.0234C54.6705 22.3828 55.1953 22.9076 55.1953 23.5547V30.5859C55.1953 31.233 54.6705 31.7578 54.0234 31.7578ZM49.3359 29.4141H52.8516V24.7266H49.3359V29.4141Z" fill="#06A765"/>
<path d="M54.0234 43.4766H48.1641C47.517 43.4766 46.9922 42.9518 46.9922 42.3047V35.2734C46.9922 34.6263 47.517 34.1016 48.1641 34.1016H54.0234C54.6705 34.1016 55.1953 34.6263 55.1953 35.2734V42.3047C55.1953 42.9518 54.6705 43.4766 54.0234 43.4766ZM49.3359 41.1328H52.8516V36.4453H49.3359V41.1328Z" fill="#06A765"/>
<path d="M54.0234 55.1953H48.1641C47.517 55.1953 46.9922 54.6705 46.9922 54.0234V46.9922C46.9922 46.3451 47.517 45.8203 48.1641 45.8203H54.0234C54.6705 45.8203 55.1953 46.3451 55.1953 46.9922V54.0234C55.1953 54.6705 54.6705 55.1953 54.0234 55.1953ZM49.3359 52.8516H52.8516V48.1641H49.3359V52.8516Z" fill="#06A765"/>
</g>
<defs>
<clipPath id="clip0_282_11370">
<rect width="60" height="60" fill="white"/>
</clipPath>
</defs>
</svg>
