<svg width="20" height="21" viewBox="0 0 20 21" fill="none" xmlns="http://www.w3.org/2000/svg">
<path fill-rule="evenodd" clip-rule="evenodd" d="M10.8334 10.4165C12.7352 10.0304 14.1667 8.34897 14.1667 6.33317C14.1667 4.03198 12.3012 2.1665 10 2.1665C7.69883 2.1665 5.83335 4.03198 5.83335 6.33317C5.83335 8.34897 7.26482 10.0304 9.16669 10.4165V12.1984C8.00415 12.2882 6.93661 12.5643 6.09181 12.9867C5.0984 13.4834 4.16669 14.3238 4.16669 15.4998C4.16669 16.6759 5.0984 17.5163 6.09181 18.013C7.13506 18.5346 8.51799 18.8332 10 18.8332C11.4821 18.8332 12.865 18.5346 13.9082 18.013C14.9016 17.5163 15.8334 16.6759 15.8334 15.4998C15.8334 14.3238 14.9016 13.4834 13.9082 12.9867C13.0634 12.5643 11.9959 12.2882 10.8334 12.1984V10.4165ZM10.8334 6.33317C10.8334 6.79341 10.4603 7.1665 10 7.1665C9.53978 7.1665 9.16669 6.79341 9.16669 6.33317C9.16669 5.87293 9.53978 5.49984 10 5.49984C10.4603 5.49984 10.8334 5.87293 10.8334 6.33317ZM9.16669 15.4998V13.8709C8.2377 13.9563 7.43185 14.1801 6.83716 14.4774C6.02093 14.8855 5.83335 15.2952 5.83335 15.4998C5.83335 15.7045 6.02093 16.1141 6.83716 16.5222C7.60355 16.9054 8.72063 17.1665 10 17.1665C11.2794 17.1665 12.3965 16.9054 13.1629 16.5222C13.9791 16.1141 14.1667 15.7045 14.1667 15.4998C14.1667 15.2952 13.9791 14.8855 13.1629 14.4774C12.5682 14.1801 11.7623 13.9563 10.8334 13.8709V15.4998H9.16669Z" fill="#0061BC"/>
</svg>
