<svg width="91" height="25" viewBox="0 0 91 25" fill="none" xmlns="http://www.w3.org/2000/svg">
<path fill-rule="evenodd" clip-rule="evenodd" d="M3.83136 16.8082C4.44742 17.5787 5.07488 18.5443 5.40324 19.1295C5.80312 19.8902 5.96892 20.4039 6.26639 21.3174C6.44033 21.8213 6.60612 21.9741 6.95398 21.9741C7.33436 21.9741 7.50827 21.7173 7.64156 21.3174C7.91953 20.4543 8.1341 19.7976 8.47384 19.1701C9.14192 17.9689 9.98394 16.8992 10.8065 15.8719C11.0324 15.5842 12.4711 13.8887 13.1181 12.5429C13.1181 12.5429 13.9097 11.0734 13.9097 9.01867C13.9097 7.09736 13.1294 5.7627 13.1294 5.7627L10.8699 6.36903L9.49305 9.98582L9.15333 10.4784L9.0818 10.571L8.98914 10.6848L8.83472 10.8701L8.60876 11.096L7.38637 12.0925L4.33527 13.8595L3.83136 16.8082Z" fill="#34A853"/>
<path fill-rule="evenodd" clip-rule="evenodd" d="M0.677856 12.2963C1.42724 14.0016 2.85602 15.4922 3.83131 16.8072L8.99885 10.6839C8.99885 10.6839 8.269 11.6397 6.95391 11.6397C5.48443 11.6397 4.29289 10.4693 4.29289 8.98844C4.29289 7.97084 4.89921 7.27344 4.89921 7.27344L1.39629 8.2081L0.677856 12.2963Z" fill="#0061BC"/>
<path fill-rule="evenodd" clip-rule="evenodd" d="M9.06062 2.34229C10.7756 2.89658 12.2449 4.05728 13.1294 5.77371L8.99889 10.6941C8.99889 10.6941 9.60522 9.98542 9.60522 8.97931C9.60522 7.46919 8.33082 6.32805 6.95396 6.32805C5.64866 6.32805 4.89926 7.27247 4.89926 7.27247L4.89923 4.17099L9.06062 2.34229Z" fill="#4285F4"/>
<path fill-rule="evenodd" clip-rule="evenodd" d="M1.62231 4.5108C2.64965 3.28841 4.44742 2.02539 6.93283 2.02539C8.13409 2.02539 9.04926 2.344 9.04926 2.344L4.89924 7.27579L1.96026 7.27577L1.62231 4.5108Z" fill="#1A73E8"/>
<path fill-rule="evenodd" clip-rule="evenodd" d="M0.677857 12.2966C0.677857 12.2966 0 10.9506 0 9.00974C0 7.17128 0.718497 5.56856 1.63359 4.52002L4.91068 7.28339L0.677857 12.2966Z" fill="#EA4335"/>
<path d="M29.3097 20.22C28.0297 20.22 26.9164 19.9533 25.9697 19.42C25.0231 18.8867 24.2897 18.0933 23.7697 17.04C23.2631 15.9733 23.0097 14.66 23.0097 13.1V12.7C23.0097 11.5933 23.1564 10.6133 23.4497 9.76C23.7564 8.90667 24.1831 8.18667 24.7297 7.6C25.2897 7 25.9564 6.54667 26.7297 6.24C27.5031 5.93333 28.3631 5.78 29.3097 5.78C30.0297 5.78 30.6964 5.88 31.3097 6.08C31.9364 6.26667 32.4897 6.54667 32.9697 6.92C33.4497 7.28 33.8497 7.74 34.1697 8.3C34.5031 8.84667 34.7497 9.48 34.9097 10.2H32.3097C32.1231 9.61333 31.8697 9.15333 31.5497 8.82C31.2297 8.48667 30.8764 8.25333 30.4897 8.12C30.1031 7.97333 29.7097 7.9 29.3097 7.9C28.5631 7.9 27.9031 8.07333 27.3297 8.42C26.7564 8.76667 26.3097 9.29333 25.9897 10C25.6831 10.7067 25.5297 11.6067 25.5297 12.7V13.1C25.5297 13.9533 25.6231 14.6933 25.8097 15.32C25.9964 15.9467 26.2564 16.4667 26.5897 16.88C26.9364 17.2933 27.3364 17.6 27.7897 17.8C28.2564 18 28.7631 18.1 29.3097 18.1C30.0031 18.1 30.6031 17.98 31.1097 17.74C31.6164 17.5 32.0231 17.1267 32.3297 16.62C32.6364 16.1133 32.8231 15.4733 32.8897 14.7H29.7097V12.7H35.2097V13.5C35.2097 14.62 35.0697 15.6 34.7897 16.44C34.5231 17.28 34.1364 17.98 33.6297 18.54C33.1231 19.1 32.5031 19.52 31.7697 19.8C31.0497 20.08 30.2297 20.22 29.3097 20.22ZM42.2066 20.22C41.2333 20.22 40.3533 20.02 39.5666 19.62C38.7799 19.2067 38.1533 18.6 37.6866 17.8C37.2333 16.9867 37.0066 15.9867 37.0066 14.8V14.4C37.0066 13.28 37.2333 12.3333 37.6866 11.56C38.1533 10.7733 38.7799 10.18 39.5666 9.78C40.3533 9.38 41.2333 9.18 42.2066 9.18C43.1933 9.18 44.0733 9.38 44.8466 9.78C45.6333 10.18 46.2533 10.7733 46.7066 11.56C47.1733 12.3333 47.4066 13.28 47.4066 14.4V14.8C47.4066 15.9867 47.1733 16.9867 46.7066 17.8C46.2533 18.6 45.6333 19.2067 44.8466 19.62C44.0733 20.02 43.1933 20.22 42.2066 20.22ZM42.2066 18.3C42.7133 18.3 43.1933 18.18 43.6466 17.94C44.0999 17.7 44.4666 17.3267 44.7466 16.82C45.0266 16.3 45.1666 15.6267 45.1666 14.8V14.4C45.1666 13.64 45.0266 13.02 44.7466 12.54C44.4666 12.0467 44.0999 11.6867 43.6466 11.46C43.1933 11.22 42.7133 11.1 42.2066 11.1C41.6999 11.1 41.2199 11.22 40.7666 11.46C40.3133 11.6867 39.9466 12.0467 39.6666 12.54C39.3866 13.02 39.2466 13.64 39.2466 14.4V14.8C39.2466 15.6267 39.3866 16.3 39.6666 16.82C39.9466 17.3267 40.3133 17.7 40.7666 17.94C41.2199 18.18 41.6999 18.3 42.2066 18.3ZM54.1988 20.22C53.2255 20.22 52.3455 20.02 51.5588 19.62C50.7721 19.2067 50.1455 18.6 49.6788 17.8C49.2255 16.9867 48.9988 15.9867 48.9988 14.8V14.4C48.9988 13.28 49.2255 12.3333 49.6788 11.56C50.1455 10.7733 50.7721 10.18 51.5588 9.78C52.3455 9.38 53.2255 9.18 54.1988 9.18C55.1855 9.18 56.0655 9.38 56.8388 9.78C57.6255 10.18 58.2455 10.7733 58.6988 11.56C59.1655 12.3333 59.3988 13.28 59.3988 14.4V14.8C59.3988 15.9867 59.1655 16.9867 58.6988 17.8C58.2455 18.6 57.6255 19.2067 56.8388 19.62C56.0655 20.02 55.1855 20.22 54.1988 20.22ZM54.1988 18.3C54.7055 18.3 55.1855 18.18 55.6388 17.94C56.0921 17.7 56.4588 17.3267 56.7388 16.82C57.0188 16.3 57.1588 15.6267 57.1588 14.8V14.4C57.1588 13.64 57.0188 13.02 56.7388 12.54C56.4588 12.0467 56.0921 11.6867 55.6388 11.46C55.1855 11.22 54.7055 11.1 54.1988 11.1C53.6921 11.1 53.2121 11.22 52.7588 11.46C52.3055 11.6867 51.9388 12.0467 51.6588 12.54C51.3788 13.02 51.2388 13.64 51.2388 14.4V14.8C51.2388 15.6267 51.3788 16.3 51.6588 16.82C51.9388 17.3267 52.3055 17.7 52.7588 17.94C53.2121 18.18 53.6921 18.3 54.1988 18.3ZM65.991 24.22C64.8976 24.22 64.0243 24.0867 63.371 23.82C62.731 23.5533 62.2576 23.18 61.951 22.7C61.6576 22.2333 61.471 21.7 61.391 21.1H63.631C63.7376 21.42 63.951 21.7133 64.271 21.98C64.6043 22.2467 65.1776 22.38 65.991 22.38C66.991 22.38 67.7243 22.14 68.191 21.66C68.6576 21.18 68.891 20.4933 68.891 19.6V18.1C68.5576 18.66 68.1043 19.12 67.531 19.48C66.9576 19.84 66.271 20.02 65.471 20.02C64.5776 20.02 63.791 19.82 63.111 19.42C62.4443 19.02 61.9243 18.4267 61.551 17.64C61.1776 16.8533 60.991 15.8733 60.991 14.7V14.3C60.991 13.2067 61.1776 12.28 61.551 11.52C61.9243 10.76 62.4443 10.18 63.111 9.78C63.791 9.38 64.571 9.18 65.451 9.18C66.331 9.18 67.0843 9.38 67.711 9.78C68.351 10.18 68.7976 10.6467 69.051 11.18V9.4H71.091V19.5C71.091 20.9933 70.6643 22.1533 69.811 22.98C68.9576 23.8067 67.6843 24.22 65.991 24.22ZM65.971 18.1C66.491 18.1 66.971 17.9933 67.411 17.78C67.851 17.5533 68.2043 17.2267 68.471 16.8C68.751 16.36 68.891 15.82 68.891 15.18V13.78C68.891 13.2067 68.751 12.7267 68.471 12.34C68.2043 11.94 67.8443 11.6333 67.391 11.42C66.951 11.2067 66.4776 11.1 65.971 11.1C65.131 11.1 64.4643 11.3667 63.971 11.9C63.4776 12.42 63.231 13.22 63.231 14.3V14.7C63.231 15.8333 63.4843 16.6867 63.991 17.26C64.4976 17.82 65.1576 18.1 65.971 18.1ZM77.2957 20.1C76.5357 20.1 75.909 19.9933 75.4157 19.78C74.9357 19.5533 74.5757 19.1867 74.3357 18.68C74.109 18.16 73.9957 17.4733 73.9957 16.62V6H76.1957V16.46C76.1957 17.1133 76.3023 17.5667 76.5157 17.82C76.729 18.06 77.1223 18.18 77.6957 18.18C77.8423 18.18 77.969 18.18 78.0757 18.18C78.1823 18.1667 78.289 18.1533 78.3957 18.14V20.04C78.329 20.0533 78.2223 20.0667 78.0757 20.08C77.9423 20.0933 77.8023 20.1 77.6557 20.1C77.5223 20.1 77.4023 20.1 77.2957 20.1ZM84.8043 20.22C83.8709 20.22 83.0109 20.0267 82.2243 19.64C81.4376 19.24 80.8043 18.64 80.3243 17.84C79.8443 17.04 79.6043 16.0267 79.6043 14.8V14.4C79.6043 13.2267 79.8309 12.2533 80.2843 11.48C80.7509 10.7067 81.3643 10.1333 82.1243 9.76C82.8843 9.37333 83.7109 9.18 84.6043 9.18C86.2176 9.18 87.4509 9.61333 88.3043 10.48C89.1709 11.3467 89.6043 12.5867 89.6043 14.2V15.32H81.8443C81.8709 16.04 82.0243 16.62 82.3043 17.06C82.5843 17.5 82.9443 17.82 83.3843 18.02C83.8243 18.2067 84.2976 18.3 84.8043 18.3C85.5643 18.3 86.1176 18.18 86.4643 17.94C86.8243 17.7 87.0709 17.3867 87.2043 17H89.4043C89.1909 18.0533 88.6643 18.8533 87.8243 19.4C86.9976 19.9467 85.9909 20.22 84.8043 20.22ZM84.7043 11.1C84.2109 11.1 83.7509 11.1867 83.3243 11.36C82.8976 11.5333 82.5509 11.8067 82.2843 12.18C82.0176 12.5533 81.8709 13.0533 81.8443 13.68H87.4043C87.3909 13.0133 87.2643 12.4933 87.0243 12.12C86.7843 11.7467 86.4643 11.4867 86.0643 11.34C85.6643 11.18 85.2109 11.1 84.7043 11.1Z" fill="#222222"/>
</svg>
