<svg width="60" height="60" viewBox="0 0 60 60" fill="none" xmlns="http://www.w3.org/2000/svg">
<g clip-path="url(#clip0_282_11345)">
<path d="M25.3125 49.2925H14.7656C12.8232 49.2925 11.25 47.7192 11.25 45.7769C11.25 43.8383 12.8271 42.2612 14.7656 42.2612H25.3945C26.0416 42.2612 26.5664 42.786 26.5664 43.4331C26.5664 44.0802 26.0416 44.605 25.3945 44.605H14.7656C14.1195 44.605 13.5938 45.1307 13.5938 45.7769C13.5938 46.4237 14.1186 46.9487 14.7656 46.9487H25.3125C25.9596 46.9487 26.4844 47.4735 26.4844 48.1206C26.4844 48.7677 25.9596 49.2925 25.3125 49.2925Z" fill="#06A765"/>
<path d="M38.2059 48.162C38.1604 47.5164 38.6468 46.9561 39.2924 46.9104C47.0448 46.3631 53.4375 39.9165 53.4375 31.7144C53.4375 23.314 46.6035 16.48 38.2031 16.48H36.4043C35.7572 16.48 35.2324 15.9552 35.2324 15.3081C35.2324 14.661 35.7572 14.1362 36.4043 14.1362H38.2031C47.8957 14.1362 55.7813 22.0218 55.7813 31.7144C55.7813 41.0618 48.5254 48.6079 39.4575 49.2485C38.8092 49.2935 38.2514 48.8057 38.2059 48.162Z" fill="#06A765"/>
<path d="M38.1769 43.4905C38.1148 42.8463 38.5866 42.2737 39.2309 42.2115C44.4894 41.7045 48.75 37.2782 48.75 31.7144C48.75 25.8988 44.0187 21.1675 38.2031 21.1675H36.4043C35.7572 21.1675 35.2324 20.6427 35.2324 19.9956C35.2324 19.3485 35.7572 18.8237 36.4043 18.8237H38.2031C45.311 18.8237 51.0938 24.6065 51.0938 31.7144C51.0938 38.5355 45.8644 43.9263 39.4559 44.5445C38.8089 44.6065 38.2389 44.1325 38.1769 43.4905Z" fill="#06A765"/>
<path d="M40.9141 60.2036H8.10156C5.83996 60.2036 4 58.3637 4 56.1021C4 53.8404 5.83996 52.0005 8.10156 52.0005H40.9141C43.1757 52.0005 45.0156 53.8404 45.0156 56.1021C45.0156 58.3637 43.1757 60.2036 40.9141 60.2036ZM8.10156 54.3442C7.1323 54.3442 6.34375 55.1328 6.34375 56.1021C6.34375 57.0713 7.1323 57.8599 8.10156 57.8599H40.9141C41.8833 57.8599 42.6719 57.0713 42.6719 56.1021C42.6719 55.1328 41.8833 54.3442 40.9141 54.3442H8.10156Z" fill="#0061BC"/>
<path d="M39.375 53.98H25.3125C24.6654 53.98 24.1406 53.4552 24.1406 52.8081V44.4996C24.1406 40.0344 27.7732 36.4019 32.2383 36.4019H32.4492C36.9144 36.4019 40.547 40.0344 40.547 44.4996V52.8081C40.5469 53.4552 40.0221 53.98 39.375 53.98ZM26.4844 51.6362H38.2031V44.4996C38.2031 41.3269 35.622 38.7456 32.4491 38.7456H32.2382C29.0655 38.7456 26.4843 41.3268 26.4843 44.4996V51.6362H26.4844Z" fill="#0061BC"/>
<path d="M23.2849 28.5254C23.2584 28.5128 23.8119 28.7937 16.2899 24.9683C14.443 24.0288 13.7065 21.7728 14.6471 19.9256L21.8726 5.7195C22.8102 3.87661 25.0721 3.14008 26.9148 4.0777L33.8093 7.58419C35.6563 8.52368 36.3908 10.7802 35.4504 12.6266L34.8847 13.7392C34.5913 14.3163 33.8857 14.5458 33.309 14.2527C32.7321 13.9594 32.5022 13.254 32.7955 12.677L33.3615 11.5638C33.7147 10.8705 33.4382 10.025 32.7463 9.67294L25.8518 6.16645C25.1614 5.81547 24.3131 6.0911 23.9614 6.78215L16.7359 20.9884C16.3836 21.6802 16.6593 22.5265 17.3524 22.8791L24.2975 26.4114C24.9866 26.7275 25.7924 26.4476 26.1373 25.7698L28.5898 20.9458C28.8831 20.3685 29.5883 20.139 30.1655 20.4322C30.7424 20.7255 30.9723 21.4308 30.679 22.0079L28.2262 26.8325C27.3009 28.6506 25.1311 29.3947 23.2849 28.5254Z" fill="#0061BC"/>
<path d="M31.9108 9.2482L26.6882 6.59168C26.1115 6.29836 25.8817 5.59266 26.175 5.01586L27.5032 2.40469C28.5308 0.384609 30.9973 -0.419648 33.0185 0.608438C35.0391 1.63617 35.8426 4.10297 34.8148 6.12375L33.4866 8.73492C33.3457 9.01195 33.1005 9.22172 32.805 9.31805C32.5095 9.41414 32.1878 9.38918 31.9108 9.2482ZM28.7953 5.03391L31.9288 6.62789L32.7258 5.06121C33.1653 4.1973 32.8199 3.13688 31.9559 2.69742C31.0922 2.2582 30.0318 2.60332 29.5922 3.46734L28.7953 5.03391Z" fill="#0061BC"/>
<path d="M19.5255 31.8731L15.6967 29.9255C14.1571 29.1426 13.5445 27.2628 14.3277 25.7228L15.5672 23.2859C15.8605 22.709 16.566 22.4791 17.1429 22.7728L24.4546 26.4917C25.0314 26.785 25.2612 27.4907 24.9678 28.0675L23.7283 30.5043C22.9457 32.0432 21.0661 32.6568 19.5255 31.8731ZM17.1251 25.3931L16.4168 26.7854C16.221 27.1705 16.3741 27.6406 16.7592 27.8365L20.5882 29.7841C20.975 29.9807 21.4442 29.8256 21.6395 29.4418L22.3476 28.0495L17.1251 25.3931Z" fill="#0061BC"/>
<path d="M32.3438 48.1206C30.4052 48.1206 28.8281 46.5435 28.8281 44.605C28.8281 42.6665 30.4052 41.0894 32.3438 41.0894C34.2823 41.0894 35.8594 42.6665 35.8594 44.605C35.8594 46.5435 34.2823 48.1206 32.3438 48.1206ZM32.3438 43.4331C31.6976 43.4331 31.1719 43.9588 31.1719 44.605C31.1719 45.2512 31.6976 45.7769 32.3438 45.7769C32.9899 45.7769 33.5156 45.2512 33.5156 44.605C33.5156 43.9588 32.9899 43.4331 32.3438 43.4331Z" fill="#06A765"/>
<path d="M32.3438 23.5112C29.1129 23.5112 26.4844 20.8827 26.4844 17.6519C26.4844 14.421 29.1129 11.7925 32.3438 11.7925C35.5746 11.7925 38.2031 14.421 38.2031 17.6519C38.2031 20.8827 35.5746 23.5112 32.3438 23.5112ZM32.3438 14.1362C30.4052 14.1362 28.8281 15.7133 28.8281 17.6519C28.8281 19.5904 30.4052 21.1675 32.3438 21.1675C34.2823 21.1675 35.8594 19.5904 35.8594 17.6519C35.8594 15.7133 34.2823 14.1362 32.3438 14.1362Z" fill="#0061BC"/>
</g>
<defs>
<clipPath id="clip0_282_11345">
<rect width="60" height="60" fill="white"/>
</clipPath>
</defs>
</svg>
