<svg width="60" height="60" viewBox="0 0 60 60" fill="none" xmlns="http://www.w3.org/2000/svg">
<path d="M13.0078 39.375C10.4231 39.375 8.32031 37.2722 8.32031 34.6875V24.1406C8.32031 23.4935 8.84508 22.9688 9.49219 22.9688C10.1393 22.9688 10.6641 23.4935 10.6641 24.1406V34.6875C10.6641 35.9798 11.7155 37.0312 13.0078 37.0312C14.3002 37.0312 15.3516 35.9798 15.3516 34.6875V24.1406C15.3516 23.4935 15.8763 22.9688 16.5234 22.9688C17.1705 22.9688 17.6953 23.4935 17.6953 24.1406V34.6875C17.6953 37.2722 15.5925 39.375 13.0078 39.375Z" fill="#0061BC"/>
<path d="M30 39.375C27.4153 39.375 25.3125 37.2722 25.3125 34.6875V24.1406C25.3125 23.4935 25.8373 22.9688 26.4844 22.9688C27.1315 22.9688 27.6562 23.4935 27.6562 24.1406V34.6875C27.6562 35.9798 28.7077 37.0312 30 37.0312C31.2923 37.0312 32.3438 35.9798 32.3438 34.6875V24.1406C32.3438 23.4935 32.8685 22.9688 33.5156 22.9688C34.1627 22.9688 34.6875 23.4935 34.6875 24.1406V34.6875C34.6875 37.2722 32.5847 39.375 30 39.375Z" fill="#0061BC"/>
<path d="M46.9922 39.375C44.4075 39.375 42.3047 37.2722 42.3047 34.6875V24.1406C42.3047 23.4935 42.8295 22.9688 43.4766 22.9688C44.1237 22.9688 44.6484 23.4935 44.6484 24.1406V34.6875C44.6484 35.9798 45.6998 37.0312 46.9922 37.0312C48.2845 37.0312 49.3359 35.9798 49.3359 34.6875V24.1406C49.3359 23.4935 49.8607 22.9688 50.5078 22.9688C51.1549 22.9688 51.6797 23.4935 51.6797 24.1406V34.6875C51.6797 37.2722 49.5769 39.375 46.9922 39.375Z" fill="#0061BC"/>
<path d="M16.5234 19.4531C15.8763 19.4531 15.3516 18.9284 15.3516 18.2812V13.5938H10.6641V18.2812C10.6641 18.9284 10.1393 19.4531 9.49219 19.4531C8.84508 19.4531 8.32031 18.9284 8.32031 18.2812V12.4219C8.32031 11.7748 8.84508 11.25 9.49219 11.25H16.5234C17.1705 11.25 17.6953 11.7748 17.6953 12.4219V18.2812C17.6953 18.9284 17.1705 19.4531 16.5234 19.4531Z" fill="#0061BC"/>
<path d="M16.5234 13.5938H9.49219C7.55367 13.5938 5.97656 12.0166 5.97656 10.0781C5.97656 8.13961 7.55367 6.5625 9.49219 6.5625H16.5234C18.462 6.5625 20.0391 8.13961 20.0391 10.0781C20.0391 12.0166 18.462 13.5938 16.5234 13.5938ZM9.49219 8.90625C8.84602 8.90625 8.32031 9.43195 8.32031 10.0781C8.32031 10.7243 8.84602 11.25 9.49219 11.25H16.5234C17.1696 11.25 17.6953 10.7243 17.6953 10.0781C17.6953 9.43195 17.1696 8.90625 16.5234 8.90625H9.49219Z" fill="#0061BC"/>
<path d="M33.5156 19.4531C32.8685 19.4531 32.3438 18.9284 32.3438 18.2812V13.5938H27.6562V18.2812C27.6562 18.9284 27.1315 19.4531 26.4844 19.4531C25.8373 19.4531 25.3125 18.9284 25.3125 18.2812V12.4219C25.3125 11.7748 25.8373 11.25 26.4844 11.25H33.5156C34.1627 11.25 34.6875 11.7748 34.6875 12.4219V18.2812C34.6875 18.9284 34.1627 19.4531 33.5156 19.4531Z" fill="#0061BC"/>
<path d="M33.5156 13.5938H26.4844C24.5459 13.5938 22.9688 12.0166 22.9688 10.0781C22.9688 8.13961 24.5459 6.5625 26.4844 6.5625H33.5156C35.4541 6.5625 37.0312 8.13961 37.0312 10.0781C37.0312 12.0166 35.4541 13.5938 33.5156 13.5938ZM26.4844 8.90625C25.8382 8.90625 25.3125 9.43195 25.3125 10.0781C25.3125 10.7243 25.8382 11.25 26.4844 11.25H33.5156C34.1618 11.25 34.6875 10.7243 34.6875 10.0781C34.6875 9.43195 34.1618 8.90625 33.5156 8.90625H26.4844Z" fill="#0061BC"/>
<path d="M50.5078 19.4531C49.8607 19.4531 49.3359 18.9284 49.3359 18.2812V13.5938H44.6484V18.2812C44.6484 18.9284 44.1237 19.4531 43.4766 19.4531C42.8295 19.4531 42.3047 18.9284 42.3047 18.2812V12.4219C42.3047 11.7748 42.8295 11.25 43.4766 11.25H50.5078C51.1549 11.25 51.6797 11.7748 51.6797 12.4219V18.2812C51.6797 18.9284 51.1549 19.4531 50.5078 19.4531Z" fill="#0061BC"/>
<path d="M50.5078 13.5938H43.4766C41.538 13.5938 39.9609 12.0166 39.9609 10.0781C39.9609 8.13961 41.538 6.5625 43.4766 6.5625H50.5078C52.4463 6.5625 54.0234 8.13961 54.0234 10.0781C54.0234 12.0166 52.4463 13.5938 50.5078 13.5938ZM43.4766 8.90625C42.8304 8.90625 42.3047 9.43195 42.3047 10.0781C42.3047 10.7243 42.8304 11.25 43.4766 11.25H50.5078C51.154 11.25 51.6797 10.7243 51.6797 10.0781C51.6797 9.43195 51.154 8.90625 50.5078 8.90625H43.4766Z" fill="#0061BC"/>
<path d="M55.7812 53.4375H4.21875C1.95715 53.4375 0.117188 51.5975 0.117188 49.3359C0.117188 47.0743 1.95715 45.2344 4.21875 45.2344H55.7812C58.0429 45.2344 59.8828 47.0743 59.8828 49.3359C59.8828 51.5975 58.0429 53.4375 55.7812 53.4375ZM4.21875 47.5781C3.24949 47.5781 2.46094 48.3667 2.46094 49.3359C2.46094 50.3052 3.24949 51.0938 4.21875 51.0938H55.7812C56.7505 51.0938 57.5391 50.3052 57.5391 49.3359C57.5391 48.3667 56.7505 47.5781 55.7812 47.5781H4.21875Z" fill="#06A765"/>
<path d="M55.7812 25.3125H4.21875C1.95715 25.3125 0.117188 23.4725 0.117188 21.2109C0.117188 18.9493 1.95715 17.1094 4.21875 17.1094H55.7812C58.0429 17.1094 59.8828 18.9493 59.8828 21.2109C59.8828 23.4725 58.0429 25.3125 55.7812 25.3125ZM4.21875 19.4531C3.24949 19.4531 2.46094 20.2417 2.46094 21.2109C2.46094 22.1802 3.24949 22.9688 4.21875 22.9688H55.7812C56.7505 22.9688 57.5391 22.1802 57.5391 21.2109C57.5391 20.2417 56.7505 19.4531 55.7812 19.4531H4.21875Z" fill="#06A765"/>
<path d="M55.1953 47.5781C54.5482 47.5781 54.0234 47.0534 54.0234 46.4062V24.1406C54.0234 23.4935 54.5482 22.9688 55.1953 22.9688C55.8424 22.9688 56.3672 23.4935 56.3672 24.1406V46.4062C56.3672 47.0534 55.8424 47.5781 55.1953 47.5781Z" fill="#06A765"/>
<path d="M4.80469 47.5781C4.15758 47.5781 3.63281 47.0534 3.63281 46.4062V24.1406C3.63281 23.4935 4.15758 22.9688 4.80469 22.9688C5.4518 22.9688 5.97656 23.4935 5.97656 24.1406V46.4062C5.97656 47.0534 5.4518 47.5781 4.80469 47.5781Z" fill="#06A765"/>
</svg>
