<svg width="145" height="20" viewBox="0 0 145 20" fill="none" xmlns="http://www.w3.org/2000/svg">
<g clip-path="url(#clip0_290_11327)">
<g clip-path="url(#clip1_290_11327)">
<mask id="mask0_290_11327" style="mask-type:luminance" maskUnits="userSpaceOnUse" x="0" y="3" width="145" height="14">
<path d="M144.577 3.82812H0.202179V16.5998H144.577V3.82812Z" fill="white"/>
</mask>
<g mask="url(#mask0_290_11327)">
<path fill-rule="evenodd" clip-rule="evenodd" d="M28.6957 4.19399C26.868 4.80264 26.3396 5.47015 26.2718 7.78693C26.2378 9.05332 26.1603 12.8131 26.3687 13.8685C26.9941 16.8822 32.5352 16.9853 35.3178 16.1509C37.1066 15.6109 37.4557 14.8452 37.4896 12.6119C37.5235 10.9627 37.4896 9.48522 37.5235 8.24343C37.5235 5.78922 36.9757 4.28233 34.3336 3.98292C32.6708 3.78167 30.1692 3.70805 28.6908 4.19398L28.6957 4.19399ZM35.347 13.1275V7.5908C35.3906 6.03483 33.1024 6.23606 31.9534 6.23606C30.693 6.23606 28.492 6.10354 28.492 7.5908V13.1275C28.492 13.903 29.4616 14.1926 30.562 14.2711C31.5713 14.3067 32.5817 14.2772 33.5872 14.1828C34.6149 14.1043 35.2839 13.8147 35.3276 13.1177L35.347 13.1275Z" fill="#EC2327"/>
<path fill-rule="evenodd" clip-rule="evenodd" d="M14.8974 3.87839C17.5735 3.87839 20.5824 3.6933 22.2361 4.03347C23.8897 4.37364 24.7557 5.42419 24.7557 7.53523C24.7557 11.037 23.6598 12.0375 21.2283 12.2926C21.1582 12.2981 21.0879 12.2981 21.0179 12.2926C19.5795 12.4177 17.6813 12.2926 15.2789 12.2926V15.4292C15.2789 15.7396 15.1583 16.0374 14.9437 16.2569C14.7289 16.4764 14.4377 16.5998 14.1342 16.5998C13.8305 16.5998 13.5393 16.4764 13.3246 16.2569C13.1099 16.0374 12.9893 15.7396 12.9893 15.4292V13.4282C12.9453 11.9574 12.9893 10.2166 12.9893 8.76086C12.9893 7.57527 13.0334 6.30465 12.9893 5.11906C12.9692 4.98239 12.9757 4.84301 13.0083 4.70889C13.041 4.57478 13.0992 4.44858 13.1797 4.33751C13.2601 4.22645 13.3612 4.1327 13.4771 4.06165C13.593 3.9906 13.7216 3.94364 13.8553 3.92346C14.1987 3.87312 14.5461 3.85804 14.8925 3.87844L14.8974 3.87839ZM21.0666 6.23959H15.2838V9.98146H20.3719C21.8396 9.98146 22.593 9.8814 22.6566 8.17055C22.7203 6.45971 22.2261 6.27457 21.0666 6.23959Z" fill="#EC2327"/>
<path d="M11.4968 15.4239V8.31343C11.5065 5.82035 10.9362 4.29042 8.29256 3.9844C6.63491 3.78876 4.12178 3.69847 2.63805 4.20009C0.82087 4.81208 0.289236 5.48925 0.221602 7.8469C0.221602 8.75485 0.178106 10.9219 0.221602 12.4969V15.4114C0.222236 15.5655 0.252115 15.7181 0.309532 15.8602C0.366949 16.0024 0.450787 16.1314 0.556247 16.2399C0.661708 16.3485 0.786736 16.4344 0.924187 16.4927C1.06164 16.5511 1.20882 16.5808 1.35733 16.5801C1.65689 16.5802 1.94433 16.4574 2.15701 16.2385C2.36972 16.0195 2.49051 15.7223 2.49306 15.4114V7.64622C2.49306 6.13633 4.70172 6.27176 5.96794 6.27176C7.09401 6.27176 9.322 6.07112 9.27846 7.64622V15.4314C9.27913 15.5855 9.30901 15.738 9.36642 15.8802C9.42384 16.0223 9.50769 16.1514 9.61314 16.2599C9.71859 16.3684 9.84364 16.4543 9.98107 16.5127C10.1185 16.5711 10.2657 16.6008 10.4143 16.6001C10.7129 16.6001 10.9993 16.477 11.2105 16.2578C11.4217 16.0386 11.4968 15.7339 11.4968 15.4239Z" fill="#EC2327"/>
<path fill-rule="evenodd" clip-rule="evenodd" d="M38.9969 15.4275C38.9982 15.1144 39.1193 14.8145 39.3339 14.5931C39.5485 14.3717 39.8391 14.2467 40.1427 14.2454H40.9032L45.8618 4.46676C45.969 4.25688 46.1342 4.08459 46.3365 3.97175C46.5387 3.85891 46.7689 3.8106 46.9978 3.83297C47.2247 3.81167 47.4525 3.86059 47.6522 3.97348C47.852 4.08637 48.0146 4.2581 48.1192 4.46676L53.0778 14.2454H53.5654C53.8689 14.2467 54.1595 14.3717 54.3742 14.5931C54.5887 14.8145 54.7099 15.1144 54.7112 15.4275C54.7105 15.582 54.6804 15.735 54.6224 15.8775C54.5645 16.0201 54.4799 16.1495 54.3736 16.2583C54.2672 16.3671 54.141 16.4533 54.0023 16.5118C53.8637 16.5703 53.7152 16.6002 53.5654 16.5995H40.1429C39.9931 16.6002 39.8446 16.5703 39.7059 16.5118C39.5673 16.4533 39.4412 16.3671 39.3347 16.2583C39.2283 16.1495 39.1438 16.0201 39.0858 15.8775C39.0279 15.735 38.9975 15.582 38.9969 15.4275ZM46.998 7.32416L43.4827 14.2453H50.4988L46.998 7.32416Z" fill="#0061BC"/>
<path fill-rule="evenodd" clip-rule="evenodd" d="M70.2185 3.87266C70.3835 3.87332 70.5473 3.90422 70.6994 3.96362C70.8521 4.02301 70.9904 4.10973 71.1065 4.21882C71.2231 4.32791 71.3152 4.45724 71.378 4.59941C71.4402 4.74159 71.4724 4.89384 71.4713 5.04745V8.49685L78.2536 4.04266C78.5273 3.86482 78.865 3.7935 79.1948 3.84393C79.5241 3.89437 79.8195 4.06256 80.0177 4.31261C80.1132 4.43889 80.1815 4.58155 80.2182 4.73238C80.2548 4.88322 80.2587 5.03929 80.2304 5.19162C80.2021 5.34396 80.1416 5.48957 80.0522 5.62011C79.9633 5.75064 79.8473 5.86354 79.7112 5.95232L73.2571 10.2116L79.7112 14.4708C79.985 14.651 80.171 14.9246 80.2282 15.2319C80.2859 15.5392 80.2099 15.8551 80.0177 16.1106C79.82 16.3611 79.5257 16.5305 79.1965 16.5827C78.8672 16.635 78.529 16.566 78.2536 16.3905L71.4713 11.9313V15.4307C71.4713 15.5834 71.4391 15.7346 71.3758 15.8757C71.313 16.0167 71.2203 16.1448 71.1042 16.2525C70.9876 16.3603 70.8494 16.4456 70.6978 16.5036C70.5456 16.5616 70.3829 16.5911 70.2185 16.5904C69.8859 16.5905 69.5666 16.4688 69.3301 16.2517C69.0935 16.0346 68.9586 15.7396 68.9547 15.4307V5.04731C68.9575 4.73655 69.0913 4.43927 69.3279 4.21949C69.5644 3.99974 69.8843 3.87528 70.2185 3.87266Z" fill="#0061BC"/>
<path fill-rule="evenodd" clip-rule="evenodd" d="M88.5875 6.18134V15.433C88.5847 15.7425 88.4559 16.0384 88.2288 16.2567C88.0017 16.4751 87.6946 16.5982 87.3737 16.5996C87.2148 16.6002 87.0566 16.5705 86.9094 16.5122C86.7623 16.4539 86.6285 16.3681 86.5157 16.2597C86.403 16.1513 86.3136 16.0225 86.2525 15.8806C86.1915 15.7388 86.1598 15.5866 86.1598 15.433V6.18134H82.9458C82.6226 6.18136 82.3128 6.05825 82.0834 5.83882C81.8541 5.61939 81.7242 5.32141 81.7214 5.00977C81.7242 4.6972 81.8535 4.39818 82.0829 4.17712C82.3116 3.95609 82.6215 3.83075 82.9458 3.82812H91.8021C91.962 3.82878 92.1203 3.85987 92.268 3.91961C92.4157 3.97935 92.5495 4.06657 92.6622 4.1763C92.775 4.28602 92.8644 4.4161 92.9249 4.5591C92.986 4.70211 93.0165 4.85524 93.016 5.00975C93.016 5.32047 92.8882 5.61846 92.6606 5.83819C92.4329 6.0579 92.1242 6.18133 91.8021 6.18133L88.5875 6.18134Z" fill="#0061BC"/>
<path fill-rule="evenodd" clip-rule="evenodd" d="M135.732 8.95658H140.356C141.989 8.95658 142.609 9.01178 142.609 7.61667C142.609 6.61298 142.235 6.18647 140.356 6.18647H135.732V8.95658ZM135.732 14.2509H141.563C142.406 14.0703 142.609 13.6487 142.609 12.911C142.609 11.516 141.989 11.5762 140.356 11.5762H135.732V14.261V14.2509ZM141.672 16.5995H134.397C134.104 16.6009 133.822 16.4791 133.614 16.2609C133.405 16.0427 133.287 15.7458 133.284 15.4352V5.00692C133.286 4.69542 133.403 4.39699 133.61 4.17626C133.817 3.95553 134.098 3.83027 134.392 3.82764H140.616C142.638 3.82764 144.573 4.65568 144.573 7.14976C144.606 7.96398 144.502 8.77787 144.266 9.55355C144.216 9.68816 144.154 9.81754 144.081 9.93998C144.025 10.0519 144 10.1787 144.01 10.3051C144.02 10.4316 144.065 10.5522 144.138 10.6526C144.199 10.7813 144.252 10.9137 144.299 11.049C144.508 11.7959 144.601 12.5739 144.573 13.3524C144.557 14.1787 144.25 14.9687 143.712 15.5668C143.175 16.165 142.445 16.528 141.667 16.5842L141.672 16.5995Z" fill="#0061BC"/>
<path fill-rule="evenodd" clip-rule="evenodd" d="M58.6519 4.19399C56.8244 4.80264 56.2958 5.47015 56.228 7.78693C56.1942 9.05332 56.1164 12.8131 56.3252 13.8685C56.9505 16.8822 62.4967 16.9853 65.2793 16.1509C67.0634 15.6109 67.4121 14.8452 67.446 12.6119C67.4804 10.9627 67.446 9.48522 67.4804 8.24343C67.4804 5.78922 66.9323 4.28233 64.2903 3.98292C62.6272 3.78167 60.1256 3.70805 58.6474 4.19398L58.6519 4.19399ZM65.3037 13.1275V7.5908C65.347 6.03483 63.0587 6.23606 61.9098 6.23606C60.6493 6.23606 58.4486 6.10354 58.4486 7.5908V13.1275C58.4486 13.903 59.4182 14.1926 60.5188 14.2711C61.5277 14.3065 62.5383 14.277 63.5434 14.1828C64.5713 14.1043 65.2404 13.8147 65.2843 13.1177L65.3037 13.1275Z" fill="#0061BC"/>
<path fill-rule="evenodd" clip-rule="evenodd" d="M96.9557 4.19399C95.1338 4.80264 94.5946 5.47015 94.5269 7.78693C94.493 9.05332 94.4197 12.8131 94.6385 13.8685C95.2504 16.8822 100.817 16.9853 103.595 16.1509C105.383 15.6109 105.738 14.8452 105.781 12.6119V8.24343C105.805 5.78922 105.232 4.28233 102.59 3.98292C100.929 3.78167 98.4272 3.70805 96.9363 4.19398L96.9557 4.19399ZM103.61 13.1275V7.5908C103.654 6.03483 101.356 6.23606 100.21 6.23606C98.952 6.23606 96.7419 6.10354 96.7419 7.5908V13.1275C96.7419 13.903 97.7131 14.1926 98.8304 14.2711C99.8365 14.3066 100.844 14.2771 101.847 14.1828C102.882 14.1043 103.547 13.8147 103.595 13.1177L103.61 13.1275Z" fill="#0061BC"/>
<path fill-rule="evenodd" clip-rule="evenodd" d="M122.977 4.19399C121.144 4.80264 120.619 5.47015 120.552 7.78693C120.523 9.05332 120.445 12.8131 120.654 13.8685C121.279 16.8822 126.822 16.9853 129.606 16.1509C131.396 15.6109 131.745 14.8452 131.779 12.6119C131.808 10.9627 131.779 9.48522 131.808 8.24343C131.808 5.78922 131.26 4.28233 128.622 3.98292C126.954 3.78167 124.456 3.70805 122.977 4.19399ZM129.65 13.1275V7.5908C129.693 6.03483 127.399 6.23606 126.255 6.23606C124.994 6.23606 122.787 6.10354 122.787 7.5908V13.1275C122.787 13.903 123.757 14.1926 124.863 14.2711C125.871 14.3067 126.88 14.2773 127.885 14.1828C128.918 14.1043 129.587 13.8147 129.631 13.1177L129.65 13.1275Z" fill="#0061BC"/>
<path fill-rule="evenodd" clip-rule="evenodd" d="M109.333 3.86578C112.016 3.86578 114.857 3.7056 116.508 4.04597C118.16 4.38634 119.04 5.43753 119.04 7.54985C119.04 11.0537 117.945 12.0548 115.516 12.3151C115.446 12.3202 115.376 12.3202 115.306 12.3151C113.84 12.4402 111.958 12.3401 109.573 12.3401V15.4285C109.573 15.7391 109.452 16.037 109.238 16.2567C109.024 16.4764 108.733 16.5998 108.43 16.5998C108.126 16.5998 107.835 16.4764 107.621 16.2567C107.406 16.037 107.286 15.7391 107.286 15.4285V13.4263C107.232 11.9547 107.257 10.2127 107.286 8.75116C107.286 7.56484 107.32 6.29845 107.286 5.11218C107.245 4.83542 107.314 4.55345 107.476 4.32817C107.638 4.10292 107.881 3.95282 108.151 3.91084C108.491 3.86317 108.834 3.84808 109.177 3.86578H109.333ZM115.316 6.24842H109.569V9.99251H114.641C116.108 9.99251 116.87 9.89239 116.938 8.18554C117.007 6.47869 116.504 6.28346 115.311 6.24842H115.316Z" fill="#0061BC"/>
</g>
</g>
</g>
<defs>
<clipPath id="clip0_290_11327">
<rect width="144.38" height="20" fill="white" transform="translate(0.20108)"/>
</clipPath>
<clipPath id="clip1_290_11327">
<rect width="144.378" height="20" fill="white" transform="translate(0.202179)"/>
</clipPath>
</defs>
</svg>
