<svg width="122" height="24" viewBox="0 0 122 24" fill="none" xmlns="http://www.w3.org/2000/svg">
<path fill-rule="evenodd" clip-rule="evenodd" d="M20.485 11.9998C20.485 6.59434 16.103 2.21289 10.6973 2.21289C5.29167 2.21289 0.909729 6.59462 0.909729 11.9998C0.909729 17.405 5.29182 21.7874 10.6973 21.7874C16.1029 21.7874 20.485 17.4054 20.485 11.9998Z" fill="#FC3F1D"/>
<path fill-rule="evenodd" clip-rule="evenodd" d="M12.0028 7.75899H11.1056C9.43361 7.75899 8.57703 8.61528 8.57703 9.83905C8.57703 11.2256 9.18874 11.878 10.4124 12.7341L11.4319 13.4277L8.4957 17.8319H6.29352L8.94416 13.9168C7.43503 12.8159 6.57888 11.7554 6.57888 10.0019C6.57888 7.75899 8.12857 6.25 11.1056 6.25H14.0418V17.8729H12.0028V7.75899Z" fill="white"/>
<path fill-rule="evenodd" clip-rule="evenodd" d="M31.343 2.17725C27.0028 2.17725 23.4849 5.69517 23.4849 10.0353C23.4849 12.2043 24.3641 14.1685 25.7852 15.5906C27.2073 17.0133 30.5569 19.072 30.7534 21.2331C30.7832 21.5573 31.0178 21.8226 31.343 21.8226C31.6682 21.8226 31.9028 21.5573 31.9325 21.2331C32.129 19.072 35.4787 17.0133 36.9008 15.5906C38.322 14.1685 39.2011 12.2043 39.2011 10.0353C39.2011 5.69517 35.6831 2.17725 31.343 2.17725Z" fill="#FF4433"/>
<path fill-rule="evenodd" clip-rule="evenodd" d="M31.4439 12.7945C32.9435 12.7945 34.1588 11.5641 34.1588 10.0469C34.1588 8.52924 32.9435 7.29883 31.4439 7.29883C29.9443 7.29883 28.729 8.52924 28.729 10.0469C28.729 11.5641 29.9443 12.7945 31.4439 12.7945Z" fill="white"/>
<path d="M50.001 20L53.521 14.36C52.481 14.0533 51.7011 13.5533 51.181 12.86C50.661 12.1533 50.401 11.32 50.401 10.36C50.401 9.50667 50.601 8.75333 51.001 8.1C51.401 7.44667 51.9944 6.93333 52.781 6.56C53.5677 6.18667 54.541 6 55.7011 6H61.0011V20H58.6011V14.64H55.6611L52.5611 20H50.001ZM52.801 10.36C52.801 11.08 53.041 11.64 53.521 12.04C54.0144 12.44 54.8744 12.64 56.1011 12.64H58.6011V8.08H56.1011C54.8744 8.08 54.0144 8.28 53.521 8.68C53.041 9.08 52.801 9.64 52.801 10.36ZM64.1948 20V9.4H66.3948V13.66H71.3948V9.4H73.5948V20H71.3948V15.54H66.3948V20H64.1948ZM75.4018 22.5V18.12H76.6018C76.7885 17.84 76.9485 17.4067 77.0818 16.82C77.2152 16.22 77.3152 15.5333 77.3818 14.76C77.4618 13.9867 77.5018 13.2 77.5018 12.4V9.4H85.4018V18.12H86.8018V22.5H84.7618V20H77.4418V22.5H75.4018ZM78.8418 18.12H83.2018V11.28H79.6218V12.8C79.6218 13.8267 79.5618 14.8133 79.4418 15.76C79.3218 16.6933 79.1218 17.48 78.8418 18.12ZM93.2089 20.22C92.2755 20.22 91.4155 20.0267 90.6289 19.64C89.8422 19.24 89.2089 18.64 88.7289 17.84C88.2489 17.04 88.0089 16.0267 88.0089 14.8V14.4C88.0089 13.2267 88.2355 12.2533 88.6889 11.48C89.1555 10.7067 89.7689 10.1333 90.5289 9.76C91.2889 9.37333 92.1155 9.18 93.0089 9.18C94.6222 9.18 95.8555 9.61333 96.7089 10.48C97.5755 11.3467 98.0089 12.5867 98.0089 14.2V15.32H90.2489C90.2755 16.04 90.4289 16.62 90.7089 17.06C90.9889 17.5 91.3489 17.82 91.7889 18.02C92.2289 18.2067 92.7022 18.3 93.2089 18.3C93.9689 18.3 94.5222 18.18 94.8689 17.94C95.2289 17.7 95.4755 17.3867 95.6089 17H97.8089C97.5955 18.0533 97.0689 18.8533 96.2289 19.4C95.4022 19.9467 94.3955 20.22 93.2089 20.22ZM93.1089 11.1C92.6155 11.1 92.1555 11.1867 91.7289 11.36C91.3022 11.5333 90.9555 11.8067 90.6889 12.18C90.4222 12.5533 90.2755 13.0533 90.2489 13.68H95.8089C95.7955 13.0133 95.6689 12.4933 95.4289 12.12C95.1889 11.7467 94.8689 11.4867 94.4689 11.34C94.0689 11.18 93.6155 11.1 93.1089 11.1ZM100.21 20V9.4H102.41V13.7H103.61L107.33 9.4H109.81L105.31 14.46L110.01 20H107.33L103.61 15.5H102.41V20H100.21ZM115.821 20.22C114.875 20.22 114.021 20.02 113.261 19.62C112.501 19.22 111.901 18.62 111.461 17.82C111.035 17.02 110.821 16.0133 110.821 14.8V14.4C110.821 13.2533 111.048 12.2933 111.501 11.52C111.968 10.7467 112.581 10.1667 113.341 9.78C114.101 9.38 114.928 9.18 115.821 9.18C116.755 9.18 117.541 9.34 118.181 9.66C118.835 9.98 119.341 10.4133 119.701 10.96C120.075 11.5067 120.315 12.12 120.421 12.8H118.181C118.048 12.3067 117.808 11.9 117.461 11.58C117.115 11.26 116.568 11.1 115.821 11.1C115.328 11.1 114.868 11.2133 114.441 11.44C114.028 11.6667 113.695 12.0267 113.441 12.52C113.188 13 113.061 13.6267 113.061 14.4V14.8C113.061 15.64 113.188 16.32 113.441 16.84C113.695 17.3467 114.028 17.72 114.441 17.96C114.868 18.1867 115.328 18.3 115.821 18.3C116.448 18.3 116.955 18.16 117.341 17.88C117.728 17.6 118.008 17.1733 118.181 16.6H120.421C120.288 17.3467 120.008 17.9933 119.581 18.54C119.168 19.0733 118.641 19.4867 118.001 19.78C117.361 20.0733 116.635 20.22 115.821 20.22Z" fill="#222222"/>
</svg>
